<svg width="20" height="20" viewBox="0 0 20 20" fill="none" xmlns="http://www.w3.org/2000/svg">
<path fill-rule="evenodd" clip-rule="evenodd" d="M4.91957 1.00012L15.0804 1.00013C15.6146 1.00012 16.0604 1.00011 16.4247 1.02987C16.8046 1.06091 17.1612 1.12802 17.4985 1.29986C18.0159 1.56351 18.4366 1.98421 18.7003 2.50166C18.8721 2.83892 18.9392 3.19557 18.9703 3.57546C19 3.93969 19 4.38553 19 4.91968V16.25C19 17.7688 17.7688 19 16.25 19H3.75001C2.23122 19 1.00001 17.7688 1.00001 16.25L1 4.91969C0.999989 4.38553 0.99998 3.93969 1.02974 3.57545C1.06078 3.19557 1.12789 2.83891 1.29973 2.50165C1.56338 1.9842 1.98408 1.56351 2.50153 1.29985C2.83879 1.12801 3.19545 1.0609 3.57533 1.02986C3.93957 1.0001 4.38542 1.00011 4.91957 1.00012ZM3.69748 2.52488C3.41035 2.54834 3.27307 2.59022 3.18251 2.63636C2.94731 2.75621 2.75608 2.94743 2.63624 3.18263C2.5901 3.2732 2.54822 3.41048 2.52476 3.6976C2.50058 3.99348 2.5 4.37769 2.5 4.95012L2.50001 11H4.51394C5.55556 11 6.50778 11.5885 6.97361 12.5202L7.11804 12.809C7.32978 13.2325 7.76261 13.5 8.23607 13.5H11.7639C12.2374 13.5 12.6702 13.2325 12.882 12.809L13.0264 12.5202C13.4922 11.5885 14.4444 11 15.4861 11H17.5V4.95013C17.5 4.3777 17.4994 3.99349 17.4752 3.69761C17.4518 3.41048 17.4099 3.2732 17.3638 3.18264C17.2439 2.94744 17.0527 2.75621 16.8175 2.63637C16.7269 2.59023 16.5897 2.54835 16.3025 2.52489C16.0066 2.50071 15.6224 2.50013 15.05 2.50013L4.95 2.50012C4.37757 2.50012 3.99336 2.50071 3.69748 2.52488ZM17.5 12.5H15.4861C15.0126 12.5 14.5798 12.7675 14.368 13.191L14.2236 13.4799C13.7578 14.4115 12.8056 15 11.7639 15H8.23607C7.19445 15 6.24223 14.4115 5.7764 13.4799L5.63197 13.191C5.42023 12.7675 4.9874 12.5 4.51394 12.5H2.50001V16.25C2.50001 16.9404 3.05965 17.5 3.75001 17.5H16.25C16.9404 17.5 17.5 16.9404 17.5 16.25V12.5Z" fill="black"/>
</svg>
