<svg width="20" height="20" viewBox="0 0 20 20" fill="none" xmlns="http://www.w3.org/2000/svg">
<path fill-rule="evenodd" clip-rule="evenodd" d="M10 2.5C5.85786 2.5 2.5 5.85786 2.5 10C2.5 14.1421 5.85786 17.5 10 17.5C14.1421 17.5 17.5 14.1421 17.5 10C17.5 5.85786 14.1421 2.5 10 2.5ZM1 10C1 5.02944 5.02944 1 10 1C14.9706 1 19 5.02944 19 10C19 14.9706 14.9706 19 10 19C5.02944 19 1 14.9706 1 10ZM6 8.25C6 7.83579 6.33579 7.5 6.75 7.5H7.75C8.16421 7.5 8.5 7.83579 8.5 8.25C8.5 8.66421 8.16421 9 7.75 9H6.75C6.33579 9 6 8.66421 6 8.25ZM11.5 8.25C11.5 7.83579 11.8358 7.5 12.25 7.5H13.25C13.6642 7.5 14 7.83579 14 8.25C14 8.66421 13.6642 9 13.25 9H12.25C11.8358 9 11.5 8.66421 11.5 8.25ZM6.64157 12.3115C6.78253 12.1159 7.00892 12 7.25 12H12.75C12.9911 12 13.2175 12.1159 13.3584 12.3115C13.4994 12.507 13.5377 12.7585 13.4615 12.9872C12.8731 14.7524 11.4891 15.75 10 15.75C8.51093 15.75 7.12689 14.7524 6.53849 12.9872C6.46225 12.7585 6.50061 12.507 6.64157 12.3115ZM8.49377 13.5C8.93017 14.0232 9.48879 14.25 10 14.25C10.5112 14.25 11.0698 14.0232 11.5062 13.5H8.49377Z" fill="black"/>
</svg>
