<svg width="20" height="20" viewBox="0 0 20 20" fill="none" xmlns="http://www.w3.org/2000/svg">
<path fill-rule="evenodd" clip-rule="evenodd" d="M10 2.5C5.85786 2.5 2.5 5.85786 2.5 10C2.5 14.1421 5.85786 17.5 10 17.5C14.1421 17.5 17.5 14.1421 17.5 10C17.5 5.85786 14.1421 2.5 10 2.5ZM1 10C1 5.02944 5.02944 1 10 1C14.9706 1 19 5.02944 19 10C19 14.9706 14.9706 19 10 19C5.02944 19 1 14.9706 1 10ZM6 8.25C6 7.83579 6.33579 7.5 6.75 7.5H7.75C8.16421 7.5 8.5 7.83579 8.5 8.25C8.5 8.66421 8.16421 9 7.75 9H6.75C6.33579 9 6 8.66421 6 8.25ZM11.5 8.25C11.5 7.83579 11.8358 7.5 12.25 7.5H13.25C13.6642 7.5 14 7.83579 14 8.25C14 8.66421 13.6642 9 13.25 9H12.25C11.8358 9 11.5 8.66421 11.5 8.25ZM10 12.5C9.06287 12.5 8.25581 12.9154 7.92082 13.5854C7.73558 13.9559 7.28507 14.1061 6.91459 13.9208C6.54411 13.7356 6.39394 13.2851 6.57918 12.9146C7.24419 11.5846 8.68713 11 10 11C11.3129 11 12.7558 11.5846 13.4208 12.9146C13.6061 13.2851 13.4559 13.7356 13.0854 13.9208C12.7149 14.1061 12.2644 13.9559 12.0792 13.5854C11.7442 12.9154 10.9371 12.5 10 12.5Z" fill="black"/>
</svg>
