<svg width="20" height="20" viewBox="0 0 20 20" fill="none" xmlns="http://www.w3.org/2000/svg">
<path fill-rule="evenodd" clip-rule="evenodd" d="M5.61359 6.42412C4.30606 7.52165 3.27624 8.83007 2.69645 9.64489C2.60201 9.77761 2.55769 9.84094 2.528 9.89127C2.50946 9.92271 2.50594 9.93377 2.50399 9.94131C2.50376 9.94263 2.50305 9.94681 2.50227 9.954C2.50094 9.96632 2.5 9.98222 2.5 10C2.5 10.0178 2.50094 10.0337 2.50227 10.046C2.50305 10.0532 2.50376 10.0574 2.50399 10.0587C2.50594 10.0662 2.50946 10.0773 2.528 10.1087C2.55769 10.1591 2.60201 10.2224 2.69645 10.3551C3.27624 11.1699 4.30606 12.4784 5.61359 13.5759C6.93271 14.6831 8.44391 15.5 10 15.5C11.5561 15.5 13.0673 14.6831 14.3864 13.5759C15.6939 12.4784 16.7238 11.1699 17.3036 10.3551C17.398 10.2224 17.4423 10.1591 17.472 10.1087C17.4905 10.0773 17.4941 10.0662 17.496 10.0587C17.4962 10.0574 17.497 10.0532 17.4977 10.046C17.4991 10.0337 17.5 10.0178 17.5 10C17.5 9.98222 17.4991 9.96632 17.4977 9.954C17.497 9.94682 17.4962 9.94264 17.496 9.94131C17.4941 9.93377 17.4905 9.92272 17.472 9.89127C17.4423 9.84094 17.398 9.77761 17.3036 9.64489C16.7238 8.83007 15.6939 7.52165 14.3864 6.42412C13.0673 5.31686 11.5561 4.5 10 4.5C8.44391 4.5 6.93271 5.31686 5.61359 6.42412ZM4.64921 5.27522C6.08184 4.07268 7.92989 3 10 3C12.0701 3 13.9182 4.07268 15.3508 5.27522C16.795 6.48747 17.9094 7.90908 18.5257 8.77524C18.5358 8.78946 18.5461 8.80377 18.5564 8.8182C18.7045 9.02535 18.8698 9.25645 18.9506 9.57492C19.0165 9.83465 19.0165 10.1653 18.9506 10.4251C18.8698 10.7436 18.7045 10.9747 18.5564 11.1818C18.5461 11.1962 18.5358 11.2105 18.5257 11.2248C17.9094 12.0909 16.795 13.5125 15.3508 14.7248C13.9182 15.9273 12.0701 17 10 17C7.92989 17 6.08184 15.9273 4.64921 14.7248C3.20501 13.5125 2.0906 12.0909 1.47428 11.2248C1.46416 11.2105 1.45393 11.1962 1.44361 11.1818C1.29548 10.9747 1.13023 10.7436 1.04943 10.4251C0.983524 10.1653 0.983524 9.83465 1.04943 9.57492C1.13023 9.25644 1.29548 9.02535 1.44361 8.81819C1.45393 8.80377 1.46416 8.78945 1.47428 8.77524C2.0906 7.90908 3.20501 6.48747 4.64921 5.27522ZM10 8.5C9.17157 8.5 8.5 9.17157 8.5 10C8.5 10.8284 9.17157 11.5 10 11.5C10.8284 11.5 11.5 10.8284 11.5 10C11.5 9.17157 10.8284 8.5 10 8.5ZM7 10C7 8.34315 8.34315 7 10 7C11.6569 7 13 8.34315 13 10C13 11.6569 11.6569 13 10 13C8.34315 13 7 11.6569 7 10Z" fill="black"/>
</svg>
