<svg width="20" height="20" viewBox="0 0 20 20" fill="none" xmlns="http://www.w3.org/2000/svg">
<path fill-rule="evenodd" clip-rule="evenodd" d="M11.2366 0.999981H5.75C5.33579 0.999981 5 1.33577 5 1.74998C5 2.16419 5.33579 2.49998 5.75 2.49998H10.3778L8.10508 17.5H3.75C3.33579 17.5 3 17.8358 3 18.25C3 18.6642 3.33579 19 3.75 19H8.73845C8.74679 19.0001 8.75511 19.0001 8.76341 19H14.25C14.6642 19 15 18.6642 15 18.25C15 17.8358 14.6642 17.5 14.25 17.5H9.6222L11.8949 2.49998H16.25C16.6642 2.49998 17 2.16419 17 1.74998C17 1.33577 16.6642 0.999981 16.25 0.999981H11.2615C11.2532 0.999843 11.2449 0.999844 11.2366 0.999981Z" fill="black"/>
</svg>
