<svg width="20" height="20" viewBox="0 0 20 20" fill="none" xmlns="http://www.w3.org/2000/svg">
<path fill-rule="evenodd" clip-rule="evenodd" d="M1 3.25C1 2.83579 1.33579 2.5 1.75 2.5H18.25C18.6642 2.5 19 2.83579 19 3.25C19 3.66421 18.6642 4 18.25 4H1.75C1.33579 4 1 3.66421 1 3.25ZM1 7.75C1 7.33579 1.33579 7 1.75 7H10.25C10.6642 7 11 7.33579 11 7.75C11 8.16421 10.6642 8.5 10.25 8.5H1.75C1.33579 8.5 1 8.16421 1 7.75ZM1 12.25C1 11.8358 1.33579 11.5 1.75 11.5H18.25C18.6642 11.5 19 11.8358 19 12.25C19 12.6642 18.6642 13 18.25 13H1.75C1.33579 13 1 12.6642 1 12.25ZM1 16.75C1 16.3358 1.33579 16 1.75 16H10.25C10.6642 16 11 16.3358 11 16.75C11 17.1642 10.6642 17.5 10.25 17.5H1.75C1.33579 17.5 1 17.1642 1 16.75Z" fill="black"/>
</svg>
