<svg width="20" height="20" viewBox="0 0 20 20" fill="none" xmlns="http://www.w3.org/2000/svg">
<path fill-rule="evenodd" clip-rule="evenodd" d="M13.5114 3.52463C12.5339 3.64833 11.4821 4.25632 10.6381 5.62273C10.5014 5.84393 10.26 5.97858 10 5.97859C9.74001 5.97859 9.49856 5.84394 9.36192 5.62274C8.51788 4.25636 7.46611 3.64837 6.48858 3.52466C5.49958 3.3995 4.48262 3.75588 3.68466 4.51779C2.10476 6.04029 2.10511 8.60633 3.68571 10.1284L10 16.2088L16.3143 10.1284C17.8949 8.60633 17.8952 6.04031 16.3154 4.5178C15.5174 3.75588 14.5004 3.39948 13.5114 3.52463ZM13.3231 2.0365C14.8073 1.84869 16.2635 2.39358 17.3526 3.43427L17.3548 3.43629C19.5484 5.5487 19.5484 9.09645 17.3548 11.2089L10.5202 17.7902C10.2298 18.0699 9.77021 18.0699 9.47977 17.7902L2.64525 11.2089C0.451585 9.09645 0.451585 5.5487 2.64525 3.43629L2.64735 3.43427L2.64735 3.43427C3.73653 2.39357 5.19273 1.84871 6.6769 2.03653C7.88681 2.18964 9.04816 2.82043 9.99999 3.94944C10.9518 2.8204 12.1132 2.1896 13.3231 2.0365Z" fill="black"/>
</svg>
