<svg width="20" height="20" viewBox="0 0 20 20" fill="none" xmlns="http://www.w3.org/2000/svg">
<path fill-rule="evenodd" clip-rule="evenodd" d="M9.91956 1H10.0804C10.6146 0.99999 11.0604 0.999981 11.4247 1.02974C11.8046 1.06078 12.1612 1.12789 12.4985 1.29973C13.0159 1.56338 13.4366 1.98408 13.7003 2.50153C13.8721 2.83879 13.9392 3.19545 13.9703 3.57533C14 3.93956 14 4.3854 14 4.91955V12.0805C14 12.6146 14 13.0604 13.9703 13.4247C13.9392 13.8046 13.8721 14.1612 13.7003 14.4985C13.4366 15.0159 13.0159 15.4366 12.4985 15.7003C12.1612 15.8721 11.8046 15.9392 11.4247 15.9703C11.0604 16 10.6146 16 10.0805 16H9.91955C9.3854 16 8.93956 16 8.57533 15.9703C8.19545 15.9392 7.83879 15.8721 7.50153 15.7003C6.98408 15.4366 6.56338 15.0159 6.29973 14.4985C6.12789 14.1612 6.06078 13.8046 6.02974 13.4247C5.99998 13.0604 5.99999 12.6146 6 12.0804V4.91957C5.99999 4.38541 5.99998 3.93957 6.02974 3.57533C6.06078 3.19545 6.12789 2.83879 6.29973 2.50153C6.56338 1.98408 6.98408 1.56338 7.50153 1.29973C7.83879 1.12789 8.19545 1.06078 8.57533 1.02974C8.93956 0.999981 9.38541 0.99999 9.91956 1ZM8.69748 2.52476C8.41035 2.54822 8.27307 2.5901 8.18251 2.63624C7.94731 2.75608 7.75608 2.94731 7.63624 3.18251C7.5901 3.27307 7.54822 3.41036 7.52476 3.69748C7.50058 3.99336 7.5 4.37757 7.5 4.95V12.05C7.5 12.6224 7.50058 13.0066 7.52476 13.3025C7.54822 13.5896 7.5901 13.7269 7.63624 13.8175C7.75608 14.0527 7.94731 14.2439 8.18251 14.3638C8.27307 14.4099 8.41035 14.4518 8.69748 14.4752C8.99336 14.4994 9.37757 14.5 9.95 14.5H10.05C10.6224 14.5 11.0066 14.4994 11.3025 14.4752C11.5896 14.4518 11.7269 14.4099 11.8175 14.3638C12.0527 14.2439 12.2439 14.0527 12.3638 13.8175C12.4099 13.7269 12.4518 13.5896 12.4752 13.3025C12.4994 13.0066 12.5 12.6224 12.5 12.05V4.95C12.5 4.37757 12.4994 3.99336 12.4752 3.69748C12.4518 3.41036 12.4099 3.27307 12.3638 3.18251C12.2439 2.94731 12.0527 2.75608 11.8175 2.63624C11.7269 2.5901 11.5896 2.54822 11.3025 2.52476C11.0066 2.50058 10.6224 2.5 10.05 2.5H9.95C9.37757 2.5 8.99336 2.50058 8.69748 2.52476ZM1 18.25C1 17.8358 1.33579 17.5 1.75 17.5H18.25C18.6642 17.5 19 17.8358 19 18.25C19 18.6642 18.6642 19 18.25 19H1.75C1.33579 19 1 18.6642 1 18.25Z" fill="black"/>
</svg>
