<svg width="20" height="20" viewBox="0 0 20 20" fill="none" xmlns="http://www.w3.org/2000/svg">
<path fill-rule="evenodd" clip-rule="evenodd" d="M18.25 1C18.6642 1 19 1.33579 19 1.75V18.25C19 18.6642 18.6642 19 18.25 19C17.8358 19 17.5 18.6642 17.5 18.25V1.75C17.5 1.33579 17.8358 1 18.25 1ZM4.91957 6H12.0804C12.6146 5.99999 13.0604 5.99998 13.4247 6.02974C13.8046 6.06078 14.1612 6.12789 14.4985 6.29973C15.0159 6.56338 15.4366 6.98408 15.7003 7.50153C15.8721 7.83879 15.9392 8.19545 15.9703 8.57533C16 8.93956 16 9.3854 16 9.91955V10.0805C16 10.6146 16 11.0604 15.9703 11.4247C15.9392 11.8046 15.8721 12.1612 15.7003 12.4985C15.4366 13.0159 15.0159 13.4366 14.4985 13.7003C14.1612 13.8721 13.8046 13.9392 13.4247 13.9703C13.0604 14 12.6146 14 12.0805 14H4.91955C4.3854 14 3.93956 14 3.57533 13.9703C3.19545 13.9392 2.83879 13.8721 2.50153 13.7003C1.98408 13.4366 1.56338 13.0159 1.29973 12.4985C1.12789 12.1612 1.06078 11.8046 1.02974 11.4247C0.999981 11.0604 0.99999 10.6146 1 10.0804V9.91957C0.99999 9.38541 0.999981 8.93956 1.02974 8.57533C1.06078 8.19545 1.12789 7.83879 1.29973 7.50153C1.56338 6.98408 1.98408 6.56338 2.50153 6.29973C2.83879 6.12789 3.19545 6.06078 3.57533 6.02974C3.93957 5.99998 4.38542 5.99999 4.91957 6ZM3.69748 7.52476C3.41036 7.54822 3.27307 7.5901 3.18251 7.63624C2.94731 7.75608 2.75608 7.94731 2.63624 8.18251C2.5901 8.27307 2.54822 8.41035 2.52476 8.69748C2.50058 8.99336 2.5 9.37757 2.5 9.95V10.05C2.5 10.6224 2.50058 11.0066 2.52476 11.3025C2.54822 11.5896 2.5901 11.7269 2.63624 11.8175C2.75608 12.0527 2.94731 12.2439 3.18251 12.3638C3.27307 12.4099 3.41036 12.4518 3.69748 12.4752C3.99336 12.4994 4.37757 12.5 4.95 12.5H12.05C12.6224 12.5 13.0066 12.4994 13.3025 12.4752C13.5896 12.4518 13.7269 12.4099 13.8175 12.3638C14.0527 12.2439 14.2439 12.0527 14.3638 11.8175C14.4099 11.7269 14.4518 11.5896 14.4752 11.3025C14.4994 11.0066 14.5 10.6224 14.5 10.05V9.95C14.5 9.37757 14.4994 8.99336 14.4752 8.69748C14.4518 8.41035 14.4099 8.27307 14.3638 8.18251C14.2439 7.94731 14.0527 7.75608 13.8175 7.63624C13.7269 7.5901 13.5896 7.54822 13.3025 7.52476C13.0066 7.50058 12.6224 7.5 12.05 7.5H4.95C4.37757 7.5 3.99336 7.50058 3.69748 7.52476Z" fill="black"/>
</svg>
