<svg width="20" height="20" viewBox="0 0 20 20" fill="none" xmlns="http://www.w3.org/2000/svg">
<path fill-rule="evenodd" clip-rule="evenodd" d="M9.91956 1H10.0804C10.6146 0.99999 11.0604 0.999981 11.4247 1.02974C11.8046 1.06078 12.1612 1.12789 12.4985 1.29973C13.0159 1.56338 13.4366 1.98408 13.7003 2.50153C13.8721 2.83879 13.9392 3.19545 13.9703 3.57533C14 3.93956 14 4.3854 14 4.91955V9.25H18.25C18.6642 9.25 19 9.58579 19 10C19 10.4142 18.6642 10.75 18.25 10.75H14V15.0805C14 15.6146 14 16.0604 13.9703 16.4247C13.9392 16.8046 13.8721 17.1612 13.7003 17.4985C13.4366 18.0159 13.0159 18.4366 12.4985 18.7003C12.1612 18.8721 11.8046 18.9392 11.4247 18.9703C11.0604 19 10.6146 19 10.0805 19H9.91955C9.3854 19 8.93956 19 8.57533 18.9703C8.19545 18.9392 7.83879 18.8721 7.50153 18.7003C6.98408 18.4366 6.56338 18.0159 6.29973 17.4985C6.12789 17.1612 6.06078 16.8046 6.02974 16.4247C5.99998 16.0604 5.99999 15.6146 6 15.0804V10.75H1.75C1.33579 10.75 1 10.4142 1 10C1 9.58579 1.33579 9.25 1.75 9.25H6V4.91957C5.99999 4.38542 5.99998 3.93957 6.02974 3.57533C6.06078 3.19545 6.12789 2.83879 6.29973 2.50153C6.56338 1.98408 6.98408 1.56338 7.50153 1.29973C7.83879 1.12789 8.19545 1.06078 8.57533 1.02974C8.93956 0.999981 9.38541 0.99999 9.91956 1ZM8.69748 2.52476C8.41035 2.54822 8.27307 2.5901 8.18251 2.63624C7.94731 2.75608 7.75608 2.94731 7.63624 3.18251C7.5901 3.27307 7.54822 3.41036 7.52476 3.69748C7.50058 3.99336 7.5 4.37757 7.5 4.95V15.05C7.5 15.6224 7.50058 16.0066 7.52476 16.3025C7.54822 16.5896 7.5901 16.7269 7.63624 16.8175C7.75608 17.0527 7.94731 17.2439 8.18251 17.3638C8.27307 17.4099 8.41035 17.4518 8.69748 17.4752C8.99336 17.4994 9.37757 17.5 9.95 17.5H10.05C10.6224 17.5 11.0066 17.4994 11.3025 17.4752C11.5896 17.4518 11.7269 17.4099 11.8175 17.3638C12.0527 17.2439 12.2439 17.0527 12.3638 16.8175C12.4099 16.7269 12.4518 16.5896 12.4752 16.3025C12.4994 16.0066 12.5 15.6224 12.5 15.05V4.95C12.5 4.37757 12.4994 3.99336 12.4752 3.69748C12.4518 3.41036 12.4099 3.27307 12.3638 3.18251C12.2439 2.94731 12.0527 2.75608 11.8175 2.63624C11.7269 2.5901 11.5896 2.54822 11.3025 2.52476C11.0066 2.50058 10.6224 2.5 10.05 2.5H9.95C9.37757 2.5 8.99336 2.50058 8.69748 2.52476Z" fill="black"/>
</svg>
