<svg width="20" height="20" viewBox="0 0 20 20" fill="none" xmlns="http://www.w3.org/2000/svg">
<path fill-rule="evenodd" clip-rule="evenodd" d="M8.81944 1.26192C9.08901 1.57641 9.05259 2.04989 8.73809 2.31946L6.77744 4.00001H9.5C13.6421 4.00001 17 7.35788 17 11.5C17 15.6421 13.6421 19 9.5 19C5.35786 19 2 15.6421 2 11.5C2 10.9283 2.06412 10.3706 2.18586 9.83405C2.27752 9.4301 2.67928 9.17695 3.08323 9.26861C3.48717 9.36027 3.74033 9.76203 3.64867 10.166C3.55148 10.5943 3.5 11.0407 3.5 11.5C3.5 14.8137 6.18629 17.5 9.5 17.5C12.8137 17.5 15.5 14.8137 15.5 11.5C15.5 8.1863 12.8137 5.50001 9.5 5.50001H6.77744L8.73809 7.18057C9.05259 7.45014 9.08901 7.92361 8.81944 8.23811C8.54988 8.5526 8.0764 8.58902 7.76191 8.31946L4.26191 5.31946C4.09567 5.17697 4 4.96896 4 4.75001C4 4.53107 4.09567 4.32306 4.26191 4.18057L7.76191 1.18057C8.0764 0.911005 8.54988 0.947426 8.81944 1.26192Z" fill="black"/>
</svg>
