<svg width="20" height="20" viewBox="0 0 20 20" fill="none" xmlns="http://www.w3.org/2000/svg">
<path fill-rule="evenodd" clip-rule="evenodd" d="M7.25 3.25C7.25 2.00736 8.25736 1 9.5 1H10.5C11.7426 1 12.75 2.00736 12.75 3.25V3.36087L12.8284 3.28244C13.7071 2.40376 15.1317 2.40376 16.0104 3.28244L16.7175 3.98955C17.5962 4.86823 17.5962 6.29285 16.7175 7.17153L16.639 7.25H16.75C17.9926 7.25 19 8.25736 19 9.5V10.5C19 11.7426 17.9926 12.75 16.75 12.75H16.6391L16.7175 12.8284C17.5962 13.7071 17.5962 15.1317 16.7175 16.0104L16.0104 16.7175C15.1317 17.5962 13.7071 17.5962 12.8284 16.7175L12.75 16.6391V16.75C12.75 17.9926 11.7426 19 10.5 19H9.5C8.25736 19 7.25 17.9926 7.25 16.75V16.639L7.17157 16.7175C6.29289 17.5962 4.86827 17.5962 3.98959 16.7175L3.28248 16.0104C2.40381 15.1317 2.4038 13.7071 3.28248 12.8284L3.36087 12.75H3.25C2.00736 12.75 1 11.7426 1 10.5L1 9.5C1 8.25736 2.00736 7.25 3.25 7.25H3.3609L3.28249 7.17159C2.40381 6.29291 2.40381 4.86829 3.28249 3.98961L3.9896 3.2825C4.86828 2.40382 6.2929 2.40382 7.17158 3.2825L7.25 3.36092V3.25ZM9.5 2.5C9.08579 2.5 8.75 2.83579 8.75 3.25V3.96448C8.75 5.07811 7.40358 5.63582 6.61612 4.84836L6.11092 4.34316C5.81802 4.05027 5.34315 4.05027 5.05026 4.34316L4.34315 5.05027C4.05026 5.34316 4.05026 5.81804 4.34315 6.11093L4.84834 6.61612C5.63579 7.40357 5.07809 8.75 3.96445 8.75L3.25 8.75C2.83579 8.75 2.5 9.08578 2.5 9.5V10.5C2.5 10.9142 2.83579 11.25 3.25 11.25H3.96442C5.07805 11.25 5.63577 12.5964 4.84831 13.3839L4.34314 13.889C4.05025 14.1819 4.05025 14.6568 4.34314 14.9497L5.05025 15.6568C5.34314 15.9497 5.81802 15.9497 6.11091 15.6568L6.61612 15.1516C7.40357 14.3642 8.75 14.9219 8.75 16.0355V16.75C8.75 17.1642 9.08579 17.5 9.5 17.5H10.5C10.9142 17.5 11.25 17.1642 11.25 16.75V16.0355C11.25 14.9219 12.5964 14.3642 13.3839 15.1517L13.8891 15.6569C14.182 15.9498 14.6569 15.9498 14.9498 15.6569L15.6569 14.9498C15.9498 14.6569 15.9498 14.182 15.6569 13.8891L15.1516 13.3839C14.3642 12.5964 14.9219 11.25 16.0355 11.25H16.75C17.1642 11.25 17.5 10.9142 17.5 10.5V9.5C17.5 9.08579 17.1642 8.75 16.75 8.75L16.0355 8.75C14.9219 8.75 14.3642 7.40357 15.1516 6.61612L15.6569 6.11087C15.9497 5.81798 15.9497 5.3431 15.6569 5.05021L14.9497 4.3431C14.6569 4.05021 14.182 4.05021 13.8891 4.3431L13.3839 4.84831C12.5964 5.63576 11.25 5.07806 11.25 3.96442V3.25C11.25 2.83579 10.9142 2.5 10.5 2.5H9.5ZM10 8C8.89543 8 8 8.89543 8 10C8 11.1046 8.89543 12 10 12C11.1046 12 12 11.1046 12 10C12 8.89543 11.1046 8 10 8ZM6.5 10C6.5 8.067 8.067 6.5 10 6.5C11.933 6.5 13.5 8.067 13.5 10C13.5 11.933 11.933 13.5 10 13.5C8.067 13.5 6.5 11.933 6.5 10Z" fill="black"/>
</svg>
