<svg width="20" height="20" viewBox="0 0 20 20" fill="none" xmlns="http://www.w3.org/2000/svg">
<path fill-rule="evenodd" clip-rule="evenodd" d="M8.07049 2.26811C8.28495 1.5175 8.97102 1 9.75166 1C11.2687 1 12.4985 2.22982 12.4985 3.74688V6.15C12.4985 6.4424 12.4991 6.6166 12.5097 6.74572C12.5161 6.82454 12.5246 6.85767 12.5274 6.86654C12.5509 6.91118 12.5874 6.94766 12.632 6.97118C12.6409 6.97393 12.674 6.98243 12.7528 6.98887C12.8819 6.99942 13.0561 7 13.3485 7H14.7137C15.4039 6.99999 15.9709 6.99998 16.4239 7.04047C16.8899 7.08212 17.3261 7.17226 17.7136 7.41238C18.2896 7.76931 18.7307 8.33195 18.9201 8.99946C19.0458 9.44279 19.0068 9.8916 18.9158 10.349C18.8329 10.7658 18.6884 11.2709 18.5154 11.8755C18.5004 11.928 18.4851 11.9812 18.4697 12.0351L17.2997 16.1349C17.2882 16.1754 17.2767 16.2157 17.2654 16.2552C17.0631 16.9658 16.9051 17.5205 16.5682 17.9492C16.2774 18.3193 15.8986 18.6135 15.4521 18.7958C14.949 19.0013 14.3751 19.0008 13.6409 19.0001C13.5974 19 13.5533 19 13.5085 19H4.91808C4.38394 19 3.9381 19 3.57387 18.9703C3.19398 18.9392 2.83733 18.8721 2.50006 18.7003C1.98262 18.4366 1.56192 18.0159 1.29827 17.4985C1.12642 17.1612 1.05931 16.8046 1.02828 16.4247C0.998516 16.0604 0.998525 15.6146 0.998536 15.0804V11.9196C0.998525 11.3854 0.998516 10.9396 1.02828 10.5753C1.05931 10.1954 1.12642 9.83879 1.29827 9.50153C1.56192 8.98408 1.98262 8.56338 2.50006 8.29973C2.83733 8.12789 3.19398 8.06078 3.57387 8.02974C3.9381 7.99998 4.38395 7.99999 4.91811 8H5.79165C6.01843 8 6.14977 7.99956 6.24802 7.9926C6.30824 7.98833 6.33339 7.98273 6.34004 7.98091C6.37919 7.96467 6.41357 7.93874 6.43994 7.90556C6.44352 7.89966 6.45581 7.87702 6.47646 7.82029C6.51015 7.72773 6.54665 7.60156 6.60895 7.38351L8.07049 2.26811ZM6.43885 7.90722C6.43885 7.90718 6.43931 7.90643 6.43994 7.90556L6.43885 7.90722ZM6.34194 7.98032C6.34199 7.98033 6.34121 7.98059 6.34004 7.98091L6.34194 7.98032ZM12.6294 6.97027C12.6294 6.97026 12.63 6.97044 12.631 6.97086L12.6294 6.97027ZM12.5283 6.86912C12.5283 6.86916 12.5281 6.86869 12.5277 6.86761L12.5283 6.86912ZM9.75166 2.5C9.64074 2.5 9.54325 2.57353 9.51278 2.68019L8.05124 7.79559C8.0433 7.82336 8.0354 7.85133 8.02745 7.87946C7.93477 8.20743 7.83613 8.55653 7.62021 8.8313C7.43282 9.06975 7.18668 9.25541 6.90592 9.37008C6.77519 9.42348 6.63805 9.45512 6.49854 9.47381V17.5H13.5085C14.4408 17.5 14.6909 17.4865 14.885 17.4072C15.0802 17.3275 15.2514 17.1973 15.3888 17.0224C15.5185 16.8574 15.6016 16.6184 15.8573 15.7233C15.8573 15.7234 15.8574 15.7232 15.8573 15.7233L17.0274 11.6233C17.04 11.5791 17.0524 11.5355 17.0646 11.493C17.2471 10.8546 17.3744 10.4094 17.4446 10.0565C17.5186 9.68459 17.5066 9.51331 17.477 9.40885C17.3941 9.11666 17.1955 8.85595 16.9235 8.68745C16.827 8.62766 16.6632 8.56784 16.2904 8.53451C15.9121 8.50071 15.4126 8.5 14.6786 8.5L13.3223 8.5C13.0648 8.50002 12.8284 8.50004 12.6307 8.48388C12.4175 8.46647 12.1844 8.42661 11.9541 8.30926C11.6248 8.14148 11.3571 7.87377 11.1893 7.54448C11.0719 7.31418 11.0321 7.081 11.0147 6.86787C10.9985 6.67019 10.9985 6.43371 10.9985 6.17623L10.9985 3.74688C10.9985 3.05825 10.4403 2.5 9.75166 2.5ZM4.99854 17.5V9.5H4.94854C4.37611 9.5 3.99189 9.50058 3.69601 9.52476C3.40889 9.54822 3.27161 9.5901 3.18105 9.63624C2.94585 9.75608 2.75462 9.94731 2.63478 10.1825C2.58863 10.2731 2.54675 10.4104 2.52329 10.6975C2.49912 10.9934 2.49854 11.3776 2.49854 11.95V15.05C2.49854 15.6224 2.49912 16.0066 2.52329 16.3025C2.54675 16.5896 2.58863 16.7269 2.63478 16.8175C2.75462 17.0527 2.94585 17.2439 3.18105 17.3638C3.27161 17.4099 3.40889 17.4518 3.69601 17.4752C3.99189 17.4994 4.37611 17.5 4.94854 17.5H4.99854Z" fill="black"/>
</svg>
