<svg width="20" height="20" viewBox="0 0 20 20" fill="none" xmlns="http://www.w3.org/2000/svg">
<g clip-path="url(#clip0_157_5963)">
<path fill-rule="evenodd" clip-rule="evenodd" d="M10 2.5C8.61929 2.5 7.5 3.61929 7.5 5C7.5 6.38071 8.61929 7.5 10 7.5C11.3807 7.5 12.5 6.38071 12.5 5C12.5 3.61929 11.3807 2.5 10 2.5ZM6 5C6 2.79086 7.79086 1 10 1C12.2091 1 14 2.79086 14 5C14 7.20914 12.2091 9 10 9C7.79086 9 6 7.20914 6 5ZM3 16.625C3 13.5184 5.5184 11 8.625 11H10.75C11.1642 11 11.5 11.3358 11.5 11.75C11.5 12.1642 11.1642 12.5 10.75 12.5H8.625C6.34683 12.5 4.5 14.3468 4.5 16.625C4.5 17.1082 4.89175 17.5 5.375 17.5H8.75C9.16421 17.5 9.5 17.8358 9.5 18.25C9.5 18.6642 9.16421 19 8.75 19H5.375C4.06332 19 3 17.9367 3 16.625ZM19.765 13.2047C20.0661 13.4891 20.0797 13.9638 19.7953 14.265L15.5453 18.765C15.4014 18.9173 15.2005 19.0025 14.991 18.9999C14.7815 18.9974 14.5827 18.9074 14.4425 18.7517L12.1925 16.2517C11.9154 15.9438 11.9404 15.4696 12.2483 15.1925C12.5562 14.9154 13.0304 14.9404 13.3075 15.2483L15.0133 17.1436L18.7047 13.235C18.9892 12.9339 19.4638 12.9203 19.765 13.2047Z" fill="black"/>
</g>
<defs>
<clipPath id="clip0_157_5963">
<rect width="20" height="20" fill="white"/>
</clipPath>
</defs>
</svg>
