<svg width="20" height="20" viewBox="0 0 20 20" fill="none" xmlns="http://www.w3.org/2000/svg">
<path fill-rule="evenodd" clip-rule="evenodd" d="M10 2.5C8.61929 2.5 7.5 3.61929 7.5 5C7.5 6.38071 8.61929 7.5 10 7.5C11.3807 7.5 12.5 6.38071 12.5 5C12.5 3.61929 11.3807 2.5 10 2.5ZM6 5C6 2.79086 7.79086 1 10 1C12.2091 1 14 2.79086 14 5C14 7.20914 12.2091 9 10 9C7.79086 9 6 7.20914 6 5ZM3 16.625C3 13.5184 5.5184 11 8.625 11H10.75C11.1642 11 11.5 11.3358 11.5 11.75C11.5 12.1642 11.1642 12.5 10.75 12.5H8.625C6.34683 12.5 4.5 14.3468 4.5 16.625C4.5 17.1082 4.89175 17.5 5.375 17.5H8.75C9.16421 17.5 9.5 17.8358 9.5 18.25C9.5 18.6642 9.16421 19 8.75 19H5.375C4.06332 19 3 17.9367 3 16.625ZM18.286 13.714C18.0008 13.4287 17.5382 13.4287 17.253 13.714L13.5 17.4669V18.5H14.5331L18.286 14.747C18.5713 14.4618 18.5713 13.9992 18.286 13.714ZM16.1923 12.6533C17.0634 11.7822 18.4756 11.7822 19.3467 12.6533C20.2178 13.5244 20.2178 14.9366 19.3467 15.8077L15.3741 19.7803C15.2334 19.921 15.0427 20 14.8437 20H12.75C12.3358 20 12 19.6642 12 19.25V17.1563C12 16.9573 12.079 16.7666 12.2197 16.6259L16.1923 12.6533Z" fill="black"/>
</svg>
