<svg width="20" height="20" viewBox="0 0 20 20" fill="none" xmlns="http://www.w3.org/2000/svg">
<path fill-rule="evenodd" clip-rule="evenodd" d="M7 2.5C5.61929 2.5 4.5 3.61929 4.5 5C4.5 6.38071 5.61929 7.5 7 7.5C8.38071 7.5 9.5 6.38071 9.5 5C9.5 3.61929 8.38071 2.5 7 2.5ZM3 5C3 2.79086 4.79086 1 7 1C9.20914 1 11 2.79086 11 5C11 7.20914 9.20914 9 7 9C4.79086 9 3 7.20914 3 5ZM12.25 1.75C12.25 1.33579 12.5858 1 13 1C15.2091 1 17 2.79086 17 5C17 7.20914 15.2091 9 13 9C12.5858 9 12.25 8.66421 12.25 8.25C12.25 7.83579 12.5858 7.5 13 7.5C14.3807 7.5 15.5 6.38071 15.5 5C15.5 3.61929 14.3807 2.5 13 2.5C12.5858 2.5 12.25 2.16421 12.25 1.75ZM1 16.625C1 13.5184 3.5184 11 6.625 11H7.375C10.4816 11 13 13.5184 13 16.625C13 17.9367 11.9367 19 10.625 19H3.375C2.06332 19 1 17.9367 1 16.625ZM6.625 12.5C4.34683 12.5 2.5 14.3468 2.5 16.625C2.5 17.1082 2.89175 17.5 3.375 17.5H10.625C11.1082 17.5 11.5 17.1082 11.5 16.625C11.5 14.3468 9.65317 12.5 7.375 12.5H6.625ZM12.5 11.75C12.5 11.3358 12.8358 11 13.25 11H13.375C16.4816 11 19 13.5184 19 16.625C19 17.9367 17.9367 19 16.625 19H15C14.5858 19 14.25 18.6642 14.25 18.25C14.25 17.8358 14.5858 17.5 15 17.5H16.625C17.1082 17.5 17.5 17.1082 17.5 16.625C17.5 14.3468 15.6532 12.5 13.375 12.5H13.25C12.8358 12.5 12.5 12.1642 12.5 11.75Z" fill="black"/>
</svg>
