<svg width="20" height="20" viewBox="0 0 20 20" fill="none" xmlns="http://www.w3.org/2000/svg">
<path fill-rule="evenodd" clip-rule="evenodd" d="M11.1614 4.14695C10.6536 3.28435 9.34616 3.28435 8.83842 4.14695L2.67167 14.6236C2.19886 15.4269 2.77316 16.5 3.83315 16.5H16.1666C17.2266 16.5 17.8009 15.4269 17.3281 14.6236L11.1614 4.14695ZM7.54574 3.38605C8.63355 1.53798 11.3663 1.53799 12.4541 3.38605L18.6208 13.8627C19.7268 15.7416 18.298 18 16.1666 18H3.83315C1.70176 18 0.273041 15.7416 1.37899 13.8627L7.54574 3.38605ZM9.9999 6C10.4141 6 10.7499 6.33579 10.7499 6.75L10.7499 10.25C10.7499 10.6642 10.4141 11 9.9999 11C9.58568 11 9.2499 10.6642 9.2499 10.25L9.2499 6.75C9.2499 6.33579 9.58568 6 9.9999 6ZM9.9999 12C10.4141 12 10.7499 12.3358 10.7499 12.75V14.25C10.7499 14.6642 10.4141 15 9.9999 15C9.58568 15 9.2499 14.6642 9.2499 14.25V12.75C9.2499 12.3358 9.58568 12 9.9999 12Z" fill="black"/>
</svg>
