<svg width="20" height="20" viewBox="0 0 20 20" fill="none" xmlns="http://www.w3.org/2000/svg">
<path fill-rule="evenodd" clip-rule="evenodd" d="M3.31066 10.0711C3.31066 9.65685 3.64645 9.32107 4.06066 9.32107L9.32107 9.32107L9.32107 4.06066C9.32107 3.64645 9.65685 3.31066 10.0711 3.31066C10.4853 3.31066 10.8211 3.64645 10.8211 4.06066L10.8211 9.32107L16.0815 9.32107C16.4957 9.32107 16.8315 9.65685 16.8315 10.0711C16.8315 10.4853 16.4957 10.8211 16.0815 10.8211L10.8211 10.8211L10.8211 16.0815C10.8211 16.4957 10.4853 16.8315 10.0711 16.8315C9.65685 16.8315 9.32107 16.4957 9.32107 16.0815L9.32107 10.8211L4.06066 10.8211C3.64645 10.8211 3.31066 10.4853 3.31066 10.0711Z" fill="black"/>
</svg>
