<svg width="20" height="20" viewBox="0 0 20 20" fill="none" xmlns="http://www.w3.org/2000/svg">
<path fill-rule="evenodd" clip-rule="evenodd" d="M11.4696 2.10861C12.9635 0.630463 15.3824 0.630463 16.8763 2.10861C18.3746 3.59113 18.3746 5.99809 16.8763 7.4806L8.71702 15.5538C7.82395 16.4375 6.37926 16.4375 5.48619 15.5538C4.58871 14.6658 4.58871 13.2227 5.48619 12.3347L12.5575 5.33791C12.852 5.04657 13.3268 5.04909 13.6182 5.34353C13.9095 5.63797 13.907 6.11283 13.6126 6.40417L6.54121 13.401C6.23703 13.702 6.23703 14.1866 6.54121 14.4876C6.84981 14.7929 7.3534 14.7929 7.66199 14.4876L15.8212 6.41434C16.7263 5.51887 16.7263 4.07035 15.8212 3.17488C14.9118 2.27504 13.4341 2.27504 12.5247 3.17488L4.62938 10.9869C4.55088 11.0646 4.52033 11.0949 4.4922 11.1241C3.87487 11.7647 3.52225 12.6085 3.50102 13.4904C3.50005 13.5305 3.5 13.5732 3.5 13.6831C3.5 13.9343 3.50022 14.0333 3.50407 14.1132C3.59197 15.9374 5.06895 17.4082 6.9297 17.4959C7.01115 17.4998 7.11192 17.5 7.36557 17.5C7.47653 17.5 7.51996 17.5 7.56088 17.499C8.45885 17.4778 9.31521 17.1262 9.96312 16.515C9.99263 16.4872 10.0233 16.4569 10.1018 16.3793L15.8212 10.7201C16.1157 10.4287 16.5906 10.4312 16.8819 10.7257C17.1732 11.0201 17.1707 11.495 16.8763 11.7863L11.15 17.4523C11.0805 17.521 11.0366 17.5645 10.9925 17.6061C10.0735 18.473 8.86254 18.9687 7.59624 18.9986C7.53552 19 7.47358 19 7.37537 19H7.34212C7.11938 19 6.98049 19 6.85902 18.9943C4.23896 18.8707 2.13154 16.7948 2.00581 14.1854C1.99999 14.0647 1.99999 13.9267 2 13.7069L2 13.6734C2 13.5763 2 13.5147 2.00145 13.4543C2.03178 12.1947 2.5355 10.9929 3.41207 10.0833C3.45413 10.0396 3.49808 9.99613 3.56759 9.92735L11.4696 2.10861Z" fill="black"/>
</svg>
