<svg width="20" height="20" viewBox="0 0 20 20" fill="none" xmlns="http://www.w3.org/2000/svg">
<path fill-rule="evenodd" clip-rule="evenodd" d="M4.56034 5.17575C4.80637 2.70281 6.92359 1 9.36647 1H10.6335C13.0764 1 15.1936 2.70281 15.4397 5.17575L15.4401 5.17969L15.8634 9.67575C15.8634 9.67642 15.8635 9.67709 15.8636 9.67776C16.0026 11.0707 16.604 12.477 17.5537 13.4859C18.0727 14.0373 18.0772 14.801 17.8758 15.3479C17.6739 15.8963 17.1558 16.5 16.3409 16.5H12.9585C12.7205 17.9189 11.4865 19 10 19C8.51351 19 7.27953 17.9189 7.04149 16.5H3.65907C2.84418 16.5 2.32611 15.8963 2.12416 15.3479C1.92281 14.801 1.92732 14.0373 2.4463 13.4859C3.39603 12.477 3.99743 11.0707 4.13644 9.67767L4.56034 5.17575ZM16.3409 15C16.3447 15 16.3457 14.9996 16.3469 14.9991C16.3491 14.9983 16.3572 14.9948 16.3702 14.9838C16.3987 14.9597 16.439 14.909 16.4682 14.8296C16.4973 14.7508 16.505 14.6712 16.4971 14.6092C16.4895 14.5498 16.4708 14.5239 16.4615 14.5141C15.2655 13.2436 14.5393 11.5187 14.3708 9.82425L14.3704 9.82031L13.947 5.32425C13.947 5.3236 13.9469 5.32295 13.9469 5.3223C13.7843 3.69827 12.3888 2.5 10.6335 2.5H9.36647C7.6112 2.5 6.21571 3.69831 6.05315 5.32238C6.05309 5.323 6.05303 5.32363 6.05297 5.32425L5.62927 9.82425C5.4607 11.5187 4.73448 13.2436 3.53851 14.5141C3.52926 14.5239 3.51055 14.5498 3.50295 14.6092C3.49499 14.6712 3.50276 14.7508 3.53177 14.8296C3.56103 14.909 3.60134 14.9597 3.62983 14.9838C3.64279 14.9948 3.65084 14.9983 3.65296 14.9991C3.65421 14.9996 3.65517 15 3.65907 15H16.3409ZM8.58537 16.5C8.79128 17.0826 9.3469 17.5 10 17.5C10.6531 17.5 11.2087 17.0826 11.4147 16.5H8.58537Z" fill="black"/>
</svg>
