<svg width="20" height="20" viewBox="0 0 20 20" fill="none" xmlns="http://www.w3.org/2000/svg">
<path d="M7.28271 8.28273L5.09662 6.09652M6.08705 4.17389L4.10619 2.19303C3.84878 1.93562 3.43143 1.93562 3.17402 2.19303L1.19316 4.17389C0.935748 4.4313 0.935748 4.84865 1.19316 5.10606L3.17402 7.08692C3.43143 7.34433 3.84878 7.34433 4.10619 7.08692L6.08705 5.10606C6.34446 4.84865 6.34446 4.4313 6.08705 4.17389Z" stroke="black" stroke-width="1.5" stroke-linecap="round" stroke-linejoin="round"/>
<path d="M6.80273 12.0799L5.09654 13.7861M3.17391 12.7957L1.19305 14.7765C0.935641 15.0339 0.935641 15.4513 1.19305 15.7087L3.17391 17.6895C3.43132 17.947 3.84867 17.947 4.10608 17.6895L6.08694 15.7087C6.34435 15.4513 6.34435 15.0339 6.08694 14.7765L4.10608 12.7957C3.84867 12.5382 3.43132 12.5382 3.17391 12.7957Z" stroke="black" stroke-width="1.5" stroke-linecap="round" stroke-linejoin="round"/>
<path d="M13.7201 10.4L11.6014 10.4M15.894 7.95307L13.9131 9.93393C13.6557 10.1913 13.6557 10.6087 13.9131 10.8661L15.894 12.847C16.1514 13.1044 16.5687 13.1044 16.8261 12.847L18.807 10.8661C19.0644 10.6087 19.0644 10.1913 18.807 9.93393L16.8261 7.95307C16.5687 7.69566 16.1514 7.69566 15.894 7.95307ZM8.49671 7.99572L6.51586 9.97658C6.25844 10.234 6.25844 10.6513 6.51586 10.9088L8.49671 12.8896C8.75413 13.147 9.17147 13.147 9.42888 12.8896L11.4097 10.9088C11.6672 10.6513 11.6672 10.234 11.4097 9.97658L9.42888 7.99572C9.17147 7.73831 8.75413 7.73831 8.49671 7.99572Z" stroke="black" stroke-width="1.5" stroke-linecap="round" stroke-linejoin="round"/>
</svg>
