<svg width="20" height="20" viewBox="0 0 20 20" fill="none" xmlns="http://www.w3.org/2000/svg">
<path fill-rule="evenodd" clip-rule="evenodd" d="M4 7C4 3.68629 6.68629 1 10 1C13.3137 1 16 3.68629 16 7V7.49281C16 9.46612 15.0138 11.3089 13.3719 12.4034C13.1396 12.5583 13 12.8191 13 13.0984V14.682C13 15.4099 12.4099 16 11.682 16H8.31802C7.5901 16 7 15.4099 7 14.682V13.0984C7 12.8191 6.86044 12.5583 6.62809 12.4034C4.98621 11.3089 4 9.46612 4 7.49281V7ZM10 2.5C7.51472 2.5 5.5 4.51472 5.5 7V7.49281C5.5 8.96459 6.23555 10.339 7.46014 11.1554C8.10979 11.5885 8.5 12.3176 8.5 13.0984V14.5H11.5V13.0984C11.5 12.3176 11.8902 11.5885 12.5399 11.1554C13.7644 10.339 14.5 8.96459 14.5 7.49281V7C14.5 4.51472 12.4853 2.5 10 2.5ZM8 18.25C8 17.8358 8.33579 17.5 8.75 17.5H11.25C11.6642 17.5 12 17.8358 12 18.25C12 18.6642 11.6642 19 11.25 19H8.75C8.33579 19 8 18.6642 8 18.25Z" fill="black"/>
</svg>
