<svg width="20" height="20" viewBox="0 0 20 20" fill="none" xmlns="http://www.w3.org/2000/svg">
<path fill-rule="evenodd" clip-rule="evenodd" d="M1.15222 3.29709C1.40235 2.96692 1.87277 2.90204 2.20293 3.15216L18.7029 15.6522C19.0331 15.9023 19.098 16.3727 18.8479 16.7029C18.5977 17.033 18.1273 17.0979 17.7971 16.8478L15.1239 14.8226C13.736 15.9875 11.9716 17 10 17C7.96561 17 6.15394 15.9215 4.75442 14.7192C3.34238 13.5061 2.25325 12.084 1.65121 11.218C1.64141 11.2039 1.6315 11.1898 1.62152 11.1755C1.47636 10.9677 1.31562 10.7376 1.23716 10.4211C1.1734 10.1639 1.1734 9.83609 1.23716 9.57889C1.31562 9.26241 1.47636 9.03229 1.62151 8.8245C1.6315 8.81021 1.64141 8.79602 1.65121 8.78192C2.10408 8.13053 2.83071 7.16716 3.7615 6.21473L1.29715 4.3478C0.966982 4.09767 0.902096 3.62725 1.15222 3.29709ZM4.96754 7.1284C4.05257 8.04208 3.32993 8.99505 2.88281 9.63817C2.79057 9.77083 2.74722 9.83424 2.71813 9.88471C2.69921 9.91753 2.69581 9.92895 2.69358 9.93784C2.69358 9.93784 2.69255 9.94371 2.69166 9.95215C2.69029 9.96511 2.68934 9.98163 2.68934 9.99998C2.68934 10.0183 2.69029 10.0349 2.69166 10.0478C2.69255 10.0563 2.69358 10.0621 2.69358 10.0621C2.69581 10.071 2.69921 10.0824 2.71813 10.1153C2.74721 10.1657 2.79057 10.2291 2.88281 10.3618C3.44945 11.1768 4.45534 12.4847 5.73189 13.5814C7.02097 14.6889 8.49148 15.5 10 15.5C11.3677 15.5 12.702 14.8331 13.8936 13.8905L11.8625 12.3519C11.3512 12.7571 10.7039 13 10 13C8.34319 13 7.00004 11.6568 7.00004 9.99998C7.00004 9.59057 7.08238 9.1996 7.23133 8.84339L4.96754 7.1284ZM8.51149 9.81321C8.50393 9.87435 8.50004 9.93667 8.50004 9.99998C8.50004 10.8284 9.17162 11.5 10 11.5C10.2068 11.5 10.4038 11.4583 10.5831 11.3826L8.51149 9.81321ZM10 4.49998C9.39514 4.49998 8.79564 4.62979 8.20714 4.86021C7.82144 5.01123 7.38634 4.82099 7.23532 4.43528C7.0843 4.04958 7.27455 3.61448 7.66025 3.46346C8.3925 3.17675 9.17781 2.99998 10 2.99998C12.0345 2.99998 13.8461 4.07842 15.2457 5.28076C16.6577 6.49385 17.7468 7.91597 18.3489 8.78192C18.3587 8.79602 18.3686 8.81021 18.3786 8.8245C18.5237 9.0323 18.6845 9.26241 18.7629 9.57889C18.8267 9.83609 18.8267 10.1639 18.7629 10.4211C18.6845 10.7376 18.5237 10.9677 18.3786 11.1755C18.3686 11.1898 18.3587 11.2039 18.3489 11.218C18.2367 11.3793 18.1083 11.559 17.9647 11.7523C17.7177 12.0848 17.2479 12.1541 16.9154 11.907C16.5829 11.66 16.5136 11.1902 16.7607 10.8577C16.8942 10.678 17.0134 10.5112 17.1173 10.3618C17.2095 10.2291 17.2529 10.1657 17.282 10.1153C17.3009 10.0824 17.3043 10.071 17.3065 10.0621C17.3065 10.0621 17.3075 10.0562 17.3084 10.0478C17.3098 10.0349 17.3107 10.0183 17.3107 9.99998C17.3107 9.98163 17.3098 9.96511 17.3084 9.95215C17.3075 9.94371 17.3065 9.93784 17.3065 9.93784C17.3043 9.92895 17.3009 9.91753 17.282 9.88471C17.2529 9.83424 17.2095 9.77083 17.1173 9.63817C16.5506 8.82314 15.5447 7.51523 14.2682 6.41854C12.9791 5.31109 11.5086 4.49998 10 4.49998Z" fill="black"/>
</svg>
