<svg width="20" height="20" viewBox="0 0 20 20" fill="none" xmlns="http://www.w3.org/2000/svg">
<g clip-path="url(#clip0_70_10074)">
<path fill-rule="evenodd" clip-rule="evenodd" d="M5.75 2.5C5.05964 2.5 4.5 3.05964 4.5 3.75V16.25C4.5 16.9404 5.05964 17.5 5.75 17.5H9.25C9.66421 17.5 10 17.8358 10 18.25C10 18.6642 9.66421 19 9.25 19H5.75C4.23122 19 3 17.7688 3 16.25V3.75C3 2.23122 4.23122 1 5.75 1H11.25C11.4489 1 11.6397 1.07902 11.7803 1.21967L16.7803 6.21967C16.921 6.36032 17 6.55109 17 6.75V9.25C17 9.66421 16.6642 10 16.25 10C15.8358 10 15.5 9.66421 15.5 9.25V7.5H11.25C10.8358 7.5 10.5 7.16421 10.5 6.75V2.5H5.75ZM12 3.56066L14.4393 6H12V3.56066ZM19.765 13.2047C20.0661 13.4891 20.0797 13.9638 19.7953 14.265L15.5453 18.765C15.4014 18.9173 15.2005 19.0025 14.991 18.9999C14.7815 18.9974 14.5827 18.9074 14.4425 18.7517L12.1925 16.2517C11.9154 15.9438 11.9404 15.4696 12.2483 15.1925C12.5562 14.9154 13.0304 14.9404 13.3075 15.2483L15.0133 17.1436L18.7047 13.235C18.9892 12.9339 19.4638 12.9203 19.765 13.2047Z" fill="black"/>
</g>
<defs>
<clipPath id="clip0_70_10074">
<rect width="20" height="20" fill="white"/>
</clipPath>
</defs>
</svg>
