<svg width="20" height="20" viewBox="0 0 20 20" fill="none" xmlns="http://www.w3.org/2000/svg">
<path fill-rule="evenodd" clip-rule="evenodd" d="M1 3.25C1 2.83579 1.33579 2.5 1.75 2.5H18.25C18.6642 2.5 19 2.83579 19 3.25C19 3.66421 18.6642 4 18.25 4H1.75C1.33579 4 1 3.66421 1 3.25ZM1.40856 6.08223C1.65933 5.95401 1.96079 5.97709 2.18912 6.14199L6.68912 9.39199C6.88435 9.53299 7 9.75917 7 10C7 10.2408 6.88435 10.467 6.68912 10.608L2.18912 13.858C1.96079 14.0229 1.65933 14.046 1.40856 13.9178C1.15779 13.7896 1 13.5316 1 13.25V6.75C1 6.46835 1.15779 6.21045 1.40856 6.08223ZM2.5 8.21682V11.7832L4.96902 10L2.5 8.21682ZM9 7.75C9 7.33579 9.33579 7 9.75 7H18.25C18.6642 7 19 7.33579 19 7.75C19 8.16421 18.6642 8.5 18.25 8.5H9.75C9.33579 8.5 9 8.16421 9 7.75ZM9 12.25C9 11.8358 9.33579 11.5 9.75 11.5H18.25C18.6642 11.5 19 11.8358 19 12.25C19 12.6642 18.6642 13 18.25 13H9.75C9.33579 13 9 12.6642 9 12.25ZM1 16.75C1 16.3358 1.33579 16 1.75 16H18.25C18.6642 16 19 16.3358 19 16.75C19 17.1642 18.6642 17.5 18.25 17.5H1.75C1.33579 17.5 1 17.1642 1 16.75Z" fill="black"/>
</svg>
