<svg width="20" height="20" viewBox="0 0 20 20" fill="none" xmlns="http://www.w3.org/2000/svg">
<path fill-rule="evenodd" clip-rule="evenodd" d="M1 3.25C1 2.83579 1.33579 2.5 1.75 2.5H18.25C18.6642 2.5 19 2.83579 19 3.25C19 3.66421 18.6642 4 18.25 4H1.75C1.33579 4 1 3.66421 1 3.25ZM9 7.75C9 7.33579 9.33579 7 9.75 7H18.25C18.6642 7 19 7.33579 19 7.75C19 8.16421 18.6642 8.5 18.25 8.5H9.75C9.33579 8.5 9 8.16421 9 7.75ZM1 12.25C1 11.8358 1.33579 11.5 1.75 11.5H18.25C18.6642 11.5 19 11.8358 19 12.25C19 12.6642 18.6642 13 18.25 13H1.75C1.33579 13 1 12.6642 1 12.25ZM9 16.75C9 16.3358 9.33579 16 9.75 16H18.25C18.6642 16 19 16.3358 19 16.75C19 17.1642 18.6642 17.5 18.25 17.5H9.75C9.33579 17.5 9 17.1642 9 16.75Z" fill="black"/>
</svg>
