<svg width="113" height="38" viewBox="0 0 113 38" fill="none" xmlns="http://www.w3.org/2000/svg">
<path d="M42.499 36.189C41.8722 36.189 41.2758 35.8728 40.9217 35.3316L36.9842 29.3367C36.4048 28.4536 36.6403 27.2594 37.5111 26.6701C38.382 26.0824 39.5595 26.3196 40.1389 27.2044L41.7044 29.5876L46.5348 14.445C46.7466 13.5893 47.5039 12.7783 48.3748 12.7783H57.251C58.2981 12.7783 59.1469 13.6924 59.1469 14.7543C59.1469 15.8161 58.2981 16.7302 57.251 16.7302H49.8522L44.339 34.5756C44.156 35.3127 43.5613 35.9519 42.8226 36.0807C42.7142 36.0996 42.6075 36.1873 42.5007 36.1873L42.499 36.189Z" fill="url(#paint0_linear_897_3662)"/>
<path d="M67.1844 37.9793C61.0325 37.9793 56.0294 32.7937 56.0294 26.4191C56.0294 20.0446 61.0325 14.859 67.1844 14.859C73.3363 14.859 78.3378 20.0446 78.3378 26.4191C78.3378 32.7937 73.3346 37.9793 67.1844 37.9793ZM67.1844 18.7044C63.0809 18.7044 59.7398 22.1648 59.7398 26.4191C59.7398 30.6734 63.0792 34.1322 67.1844 34.1322C71.2896 34.1322 74.629 30.6717 74.629 26.4191C74.629 22.1666 71.2896 18.7044 67.1844 18.7044Z" fill="url(#paint1_linear_897_3662)"/>
<path d="M85.7417 37.9793C79.5898 37.9793 74.5866 32.7937 74.5866 26.4191C74.5866 20.0446 79.5915 14.859 85.7417 14.859C91.8918 14.859 96.895 20.0446 96.895 26.4191C96.895 32.7937 91.8918 37.9793 85.7417 37.9793ZM85.7417 18.7044C81.6364 18.7044 78.297 22.1648 78.297 26.4191C78.297 30.6734 81.6364 34.1322 85.7417 34.1322C89.8469 34.1322 93.1846 30.6717 93.1846 26.4191C93.1846 22.1666 89.8452 18.7044 85.7417 18.7044Z" fill="url(#paint2_linear_897_3662)"/>
<path d="M101.517 36.189C101.222 36.189 100.855 36.1186 100.584 35.9794C99.9499 35.6495 99.4772 34.9897 99.4772 34.2663V7.9416C99.4772 6.87975 100.379 6.01892 101.426 6.01892C102.473 6.01892 103.374 6.87975 103.374 7.9416V30.5017L109.687 25.8866C110.534 25.2646 111.73 25.4571 112.343 26.3179C112.958 27.177 112.772 28.3797 111.923 29.0017L102.625 35.823C102.296 36.0636 101.908 36.1873 101.515 36.1873L101.517 36.189Z" fill="url(#paint3_linear_897_3662)"/>
<path d="M34.619 21.0275H25.9782C24.9312 21.0275 24.0823 20.1134 24.0823 19.0515C24.0823 17.9897 24.9312 17.0756 25.9782 17.0756H34.619C35.666 17.0756 36.5149 17.9897 36.5149 19.0515C36.5149 20.1134 35.666 21.0275 34.619 21.0275Z" fill="url(#paint4_linear_897_3662)"/>
<path d="M18.3337 37.9983C8.22397 37.9983 0 29.4759 0 19C0 8.52405 8.22397 0 18.3337 0C23.8349 0 28.9957 2.52577 32.4943 6.93127C33.1585 7.76632 33.0297 8.99141 32.2046 9.66323C31.3795 10.3368 30.1732 10.2045 29.509 9.36942C26.7406 5.8866 22.6676 3.88832 18.3337 3.88832C10.3384 3.88832 3.83243 10.6667 3.83243 19C3.83243 27.3333 10.3367 34.11 18.3337 34.11C26.3306 34.11 32.8349 27.3316 32.8349 19C32.8349 17.9261 33.6939 17.055 34.7528 17.055C35.8117 17.055 36.669 17.9261 36.669 19C36.669 29.4759 28.445 38 18.3353 38L18.3337 37.9983Z" fill="url(#paint5_linear_897_3662)"/>
<path d="M110.702 16.732H97.0493C96.0023 16.732 95.1534 15.818 95.1534 14.7561C95.1534 13.6942 96.0023 12.7802 97.0493 12.7802H110.702C111.749 12.7802 112.598 13.6942 112.598 14.7561C112.598 15.818 111.749 16.732 110.702 16.732Z" fill="url(#paint6_linear_897_3662)"/>
<defs>
<linearGradient id="paint0_linear_897_3662" x1="37.8059" y1="32.2251" x2="57.7713" y2="12.5379" gradientUnits="userSpaceOnUse">
<stop stop-color="#38D9A9"/>
<stop offset="0.64" stop-color="#15A990"/>
<stop offset="1" stop-color="#008C82"/>
</linearGradient>
<linearGradient id="paint1_linear_897_3662" x1="56.0294" y1="26.4191" x2="78.3394" y2="26.4191" gradientUnits="userSpaceOnUse">
<stop stop-color="#38D9A9"/>
<stop offset="0.64" stop-color="#15A990"/>
<stop offset="1" stop-color="#008C82"/>
</linearGradient>
<linearGradient id="paint2_linear_897_3662" x1="74.5849" y1="26.4191" x2="96.895" y2="26.4191" gradientUnits="userSpaceOnUse">
<stop stop-color="#38D9A9"/>
<stop offset="0.64" stop-color="#15A990"/>
<stop offset="1" stop-color="#008C82"/>
</linearGradient>
<linearGradient id="paint3_linear_897_3662" x1="99.4772" y1="21.1048" x2="112.706" y2="21.1048" gradientUnits="userSpaceOnUse">
<stop stop-color="#38D9A9"/>
<stop offset="0.64" stop-color="#15A990"/>
<stop offset="1" stop-color="#008C82"/>
</linearGradient>
<linearGradient id="paint4_linear_897_3662" x1="36.5149" y1="19.0515" x2="24.0806" y2="19.0515" gradientUnits="userSpaceOnUse">
<stop stop-color="#38D9A9"/>
<stop offset="0.64" stop-color="#15A990"/>
<stop offset="1" stop-color="#008C82"/>
</linearGradient>
<linearGradient id="paint5_linear_897_3662" x1="0" y1="19" x2="36.669" y2="19" gradientUnits="userSpaceOnUse">
<stop stop-color="#38D9A9"/>
<stop offset="0.64" stop-color="#15A990"/>
<stop offset="1" stop-color="#008C82"/>
</linearGradient>
<linearGradient id="paint6_linear_897_3662" x1="95.1517" y1="14.7561" x2="112.598" y2="14.7561" gradientUnits="userSpaceOnUse">
<stop stop-color="#38D9A9"/>
<stop offset="0.25" stop-color="#23BC9A"/>
<stop offset="0.54" stop-color="#10A28D"/>
<stop offset="0.8" stop-color="#049184"/>
<stop offset="1" stop-color="#008C82"/>
</linearGradient>
</defs>
</svg>
