<svg width="20" height="20" viewBox="0 0 20 20" fill="none" xmlns="http://www.w3.org/2000/svg">
<path fill-rule="evenodd" clip-rule="evenodd" d="M16.3026 2.52476C16.0067 2.50058 15.6225 2.5 15.05 2.5H7.75003C7.33581 2.5 7.00003 2.16421 7.00003 1.75C7.00003 1.33579 7.33581 1 7.75003 1L15.0805 1C15.6146 0.99999 16.0605 0.999981 16.4247 1.02974C16.8046 1.06078 17.1612 1.12789 17.4985 1.29973C18.0159 1.56338 18.4366 1.98408 18.7003 2.50153C18.8721 2.83879 18.9393 3.19545 18.9703 3.57533C19 3.93956 19 4.3854 19 4.91955V12.26C19 12.6742 18.6642 13.01 18.25 13.01C17.8358 13.01 17.5 12.6742 17.5 12.26V4.95C17.5 4.37757 17.4994 3.99336 17.4753 3.69748C17.4518 3.41036 17.4099 3.27307 17.3638 3.18251C17.2439 2.94731 17.0527 2.75608 16.8175 2.63624C16.727 2.5901 16.5897 2.54822 16.3026 2.52476ZM4.9196 4H12.0805C12.6146 3.99999 13.0605 3.99998 13.4247 4.02974C13.8046 4.06078 14.1612 4.12789 14.4985 4.29973C15.0159 4.56338 15.4366 4.98408 15.7003 5.50153C15.8721 5.83879 15.9393 6.19545 15.9703 6.57533C16 6.93956 16 7.3854 16 7.91955V13.7481V13.7522V15.0805C16 15.6146 16 16.0604 15.9703 16.4247C15.9393 16.8046 15.8721 17.1612 15.7003 17.4985C15.4366 18.0159 15.0159 18.4366 14.4985 18.7003C14.1612 18.8721 13.8046 18.9392 13.4247 18.9703C13.0605 19 12.6146 19 12.0805 19H4.91958C4.38543 19 3.93959 19 3.57536 18.9703C3.19547 18.9392 2.83882 18.8721 2.50155 18.7003C1.98411 18.4366 1.56341 18.0159 1.29976 17.4985C1.12792 17.1612 1.06081 16.8046 1.02977 16.4247C1.00001 16.0604 1.00002 15.6146 1.00003 15.0804L1.00003 14.5894C0.999991 14.585 0.99999 14.5807 1.00003 14.5763L1.00003 7.91957C1.00002 7.38541 1.00001 6.93956 1.02977 6.57533C1.06081 6.19545 1.12792 5.83879 1.29976 5.50153C1.56341 4.98408 1.98411 4.56338 2.50155 4.29973C2.83882 4.12789 3.19547 4.06078 3.57536 4.02974C3.93959 3.99998 4.38544 3.99999 4.9196 4ZM2.50003 14.8456V15.05C2.50003 15.6224 2.50061 16.0066 2.52479 16.3025C2.54824 16.5896 2.59013 16.7269 2.63627 16.8175C2.75611 17.0527 2.94734 17.2439 3.18254 17.3638C3.2731 17.4099 3.41038 17.4518 3.69751 17.4752C3.99339 17.4994 4.3776 17.5 4.95003 17.5H12.05C12.6225 17.5 13.0067 17.4994 13.3026 17.4752C13.5897 17.4518 13.727 17.4099 13.8175 17.3638C14.0527 17.2439 14.2439 17.0527 14.3638 16.8175C14.4099 16.7269 14.4518 16.5896 14.4753 16.3025C14.4994 16.0066 14.5 15.6224 14.5 15.05V14.0759L11.4933 11.2697L9.74012 12.8635L10.8435 14.2914C11.0968 14.6192 11.0364 15.0902 10.7086 15.3435C10.3809 15.5967 9.90983 15.5363 9.65656 15.2086L5.99095 10.4649L2.50003 14.8456ZM8.82001 11.6728L6.59349 8.79142C6.45267 8.60918 6.23593 8.50174 6.00563 8.50002C5.77533 8.4983 5.55701 8.60249 5.41348 8.7826L2.50003 12.4387V7.95C2.50003 7.37757 2.50061 6.99336 2.52479 6.69748C2.54824 6.41036 2.59013 6.27307 2.63627 6.18251C2.75611 5.94731 2.94734 5.75608 3.18254 5.63624C3.2731 5.5901 3.41038 5.54822 3.69751 5.52476C3.99339 5.50058 4.3776 5.5 4.95003 5.5H12.05C12.6225 5.5 13.0067 5.50058 13.3026 5.52476C13.5897 5.54822 13.727 5.5901 13.8175 5.63624C14.0527 5.75608 14.2439 5.94731 14.3638 6.18251C14.4099 6.27307 14.4518 6.41036 14.4753 6.69748C14.4994 6.99336 14.5 7.37757 14.5 7.95V12.0241L12.0118 9.70171C11.7264 9.43535 11.2844 9.43245 10.9955 9.69505L8.82001 11.6728Z" fill="black"/>
</svg>
