<svg width="20" height="20" viewBox="0 0 20 20" fill="none" xmlns="http://www.w3.org/2000/svg">
<path fill-rule="evenodd" clip-rule="evenodd" d="M1.75 1C2.16421 1 2.5 1.33579 2.5 1.75L2.5 18.25C2.5 18.6642 2.16421 19 1.75 19C1.33579 19 1 18.6642 1 18.25L1 1.75C1 1.33579 1.33579 1 1.75 1ZM7.91957 6H15.0804C15.6146 5.99999 16.0604 5.99998 16.4247 6.02974C16.8046 6.06078 17.1612 6.12789 17.4985 6.29973C18.0159 6.56339 18.4366 6.98408 18.7003 7.50153C18.8721 7.83879 18.9392 8.19545 18.9703 8.57533C19 8.93956 19 9.3854 19 9.91955V10.0805C19 10.6146 19 11.0604 18.9703 11.4247C18.9392 11.8046 18.8721 12.1612 18.7003 12.4985C18.4366 13.0159 18.0159 13.4366 17.4985 13.7003C17.1612 13.8721 16.8046 13.9392 16.4247 13.9703C16.0604 14 15.6146 14 15.0805 14L7.91955 14C7.3854 14 6.93956 14 6.57533 13.9703C6.19545 13.9392 5.83879 13.8721 5.50153 13.7003C4.98408 13.4366 4.56338 13.0159 4.29973 12.4985C4.12789 12.1612 4.06078 11.8046 4.02974 11.4247C3.99998 11.0604 3.99999 10.6146 4 10.0804V9.91957C3.99999 9.38542 3.99998 8.93957 4.02974 8.57533C4.06078 8.19545 4.12789 7.83879 4.29973 7.50153C4.56338 6.98408 4.98408 6.56338 5.50153 6.29973C5.83879 6.12789 6.19545 6.06078 6.57533 6.02974C6.93957 5.99998 7.38542 5.99999 7.91957 6ZM6.69748 7.52476C6.41035 7.54822 6.27307 7.5901 6.18251 7.63624C5.94731 7.75608 5.75608 7.94731 5.63624 8.18251C5.5901 8.27307 5.54822 8.41035 5.52476 8.69748C5.50058 8.99336 5.5 9.37757 5.5 9.95V10.05C5.5 10.6224 5.50058 11.0066 5.52476 11.3025C5.54822 11.5896 5.5901 11.7269 5.63624 11.8175C5.75608 12.0527 5.94731 12.2439 6.18251 12.3638C6.27307 12.4099 6.41036 12.4518 6.69748 12.4752C6.99336 12.4994 7.37757 12.5 7.95 12.5L15.05 12.5C15.6224 12.5 16.0066 12.4994 16.3025 12.4752C16.5896 12.4518 16.7269 12.4099 16.8175 12.3638C17.0527 12.2439 17.2439 12.0527 17.3638 11.8175C17.4099 11.7269 17.4518 11.5896 17.4752 11.3025C17.4994 11.0066 17.5 10.6224 17.5 10.05V9.95C17.5 9.37757 17.4994 8.99336 17.4752 8.69748C17.4518 8.41036 17.4099 8.27307 17.3638 8.18251C17.2439 7.94731 17.0527 7.75608 16.8175 7.63624C16.7269 7.5901 16.5896 7.54822 16.3025 7.52476C16.0066 7.50058 15.6224 7.5 15.05 7.5H7.95C7.37757 7.5 6.99336 7.50058 6.69748 7.52476Z" fill="black"/>
</svg>
