<svg width="20" height="20" viewBox="0 0 20 20" fill="none" xmlns="http://www.w3.org/2000/svg">
<path fill-rule="evenodd" clip-rule="evenodd" d="M10.2363 4.77232C10.0802 4.74224 9.91967 4.74224 9.7635 4.77232C9.61205 4.80149 9.45447 4.87463 8.87792 5.17164L3.38762 7.99997L8.87792 10.8283C9.45447 11.1253 9.61205 11.1985 9.7635 11.2276C9.91967 11.2577 10.0802 11.2577 10.2363 11.2276C10.3878 11.1985 10.5454 11.1253 11.1219 10.8283L16.6122 7.99997L11.1219 5.17164C10.5454 4.87463 10.3878 4.80149 10.2363 4.77232ZM9.4798 3.29939C9.82338 3.23321 10.1764 3.23321 10.52 3.29939C10.9104 3.37459 11.2706 3.56046 11.7286 3.79681C11.755 3.81044 11.7818 3.82423 11.8088 3.83818L18.5934 7.33324C18.843 7.46185 18.9999 7.71915 18.9999 7.99997C18.9999 8.2808 18.843 8.5381 18.5934 8.6667L11.8088 12.1618C11.7818 12.1757 11.755 12.1895 11.7286 12.2031C11.2706 12.4395 10.9104 12.6254 10.52 12.7006C10.1764 12.7667 9.82338 12.7667 9.4798 12.7006C9.08939 12.6254 8.7292 12.4395 8.27119 12.2031C8.24479 12.1895 8.21806 12.1757 8.19098 12.1618L1.40645 8.6667C1.1568 8.5381 0.999913 8.2808 0.999913 7.99997C0.999913 7.71915 1.1568 7.46185 1.40645 7.33324L8.19099 3.83818C8.21806 3.82423 8.24478 3.81044 8.27118 3.79681C8.7292 3.56046 9.08938 3.37459 9.4798 3.29939ZM1.08318 11.6565C1.27287 11.2883 1.72515 11.1435 2.09338 11.3332L8.87792 14.8283C9.45447 15.1253 9.61205 15.1985 9.7635 15.2276C9.91967 15.2577 10.0802 15.2577 10.2363 15.2276C10.3878 15.1985 10.5454 15.1253 11.1219 14.8283L17.9064 11.3332C18.2747 11.1435 18.727 11.2883 18.9166 11.6565C19.1063 12.0247 18.9616 12.477 18.5934 12.6667L11.8088 16.1618C11.7818 16.1757 11.755 16.1895 11.7286 16.2031C11.2706 16.4395 10.9104 16.6254 10.52 16.7006C10.1764 16.7667 9.82338 16.7667 9.4798 16.7006C9.08938 16.6254 8.7292 16.4395 8.27118 16.2031C8.24478 16.1895 8.21806 16.1757 8.19098 16.1618L1.40645 12.6667C1.03822 12.477 0.89349 12.0247 1.08318 11.6565Z" fill="black"/>
</svg>
