<svg width="20" height="20" viewBox="0 0 20 20" fill="none" xmlns="http://www.w3.org/2000/svg">
<path fill-rule="evenodd" clip-rule="evenodd" d="M10.2363 2.77232C10.0802 2.74224 9.91967 2.74224 9.7635 2.77232C9.61205 2.80149 9.45447 2.87463 8.87792 3.17164L3.38762 5.99997L8.87792 8.82831C9.45447 9.12532 9.61205 9.19846 9.7635 9.22763C9.91967 9.25771 10.0802 9.25771 10.2363 9.22763C10.3878 9.19846 10.5454 9.12532 11.1219 8.82831L16.6122 5.99997L11.1219 3.17164C10.5454 2.87463 10.3878 2.80149 10.2363 2.77232ZM9.4798 1.29939C9.82338 1.23321 10.1764 1.23321 10.52 1.29939C10.9104 1.37459 11.2706 1.56046 11.7286 1.79681C11.755 1.81044 11.7818 1.82423 11.8088 1.83818L18.5934 5.33324C18.843 5.46185 18.9999 5.71915 18.9999 5.99997C18.9999 6.2808 18.843 6.5381 18.5934 6.6667L11.8088 10.1618C11.7818 10.1757 11.755 10.1895 11.7286 10.2031C11.2706 10.4395 10.9104 10.6254 10.52 10.7006C10.1764 10.7667 9.82338 10.7667 9.4798 10.7006C9.08939 10.6254 8.7292 10.4395 8.27119 10.2031C8.24479 10.1895 8.21806 10.1757 8.19098 10.1618L1.40645 6.6667C1.1568 6.5381 0.999913 6.2808 0.999913 5.99997C0.999913 5.71915 1.1568 5.46185 1.40645 5.33324L8.19099 1.83818C8.21806 1.82423 8.24478 1.81044 8.27118 1.79681C8.7292 1.56046 9.08938 1.37459 9.4798 1.29939ZM1.08318 9.6565C1.27287 9.28828 1.72515 9.14355 2.09338 9.33324L8.87792 12.8283C9.45447 13.1253 9.61205 13.1985 9.7635 13.2276C9.91967 13.2577 10.0802 13.2577 10.2363 13.2276C10.3878 13.1985 10.5454 13.1253 11.1219 12.8283L17.9064 9.33324C18.2747 9.14355 18.727 9.28828 18.9166 9.6565C19.1063 10.0247 18.9616 10.477 18.5934 10.6667L11.8088 14.1618C11.7818 14.1757 11.755 14.1895 11.7286 14.2031C11.2706 14.4395 10.9104 14.6254 10.52 14.7006C10.1764 14.7667 9.82338 14.7667 9.4798 14.7006C9.08938 14.6254 8.7292 14.4395 8.27118 14.2031C8.24478 14.1895 8.21806 14.1757 8.19098 14.1618L1.40645 10.6667C1.03822 10.477 0.89349 10.0247 1.08318 9.6565ZM1.08318 13.6565C1.27287 13.2883 1.72515 13.1435 2.09338 13.3332L8.87792 16.8283C9.45447 17.1253 9.61205 17.1985 9.7635 17.2276C9.91967 17.2577 10.0802 17.2577 10.2363 17.2276C10.3878 17.1985 10.5454 17.1253 11.1219 16.8283L17.9064 13.3332C18.2747 13.1435 18.727 13.2883 18.9166 13.6565C19.1063 14.0247 18.9616 14.477 18.5934 14.6667L11.8088 18.1618C11.7818 18.1757 11.755 18.1895 11.7287 18.2031C11.2706 18.4395 10.9104 18.6254 10.52 18.7006C10.1764 18.7667 9.82338 18.7667 9.4798 18.7006C9.08938 18.6254 8.7292 18.4395 8.27118 18.2031C8.24478 18.1895 8.21806 18.1757 8.19098 18.1618L1.40645 14.6667C1.03822 14.477 0.89349 14.0247 1.08318 13.6565Z" fill="black"/>
</svg>
