<svg width="20" height="20" viewBox="0 0 20 20" fill="none" xmlns="http://www.w3.org/2000/svg">
<path fill-rule="evenodd" clip-rule="evenodd" d="M1 4.7473C1.00028 4.33309 1.33629 3.99752 1.7505 3.9978L4.2505 3.99948C4.66472 3.99976 5.00028 4.33577 5 4.74999C4.99972 5.1642 4.66371 5.49976 4.2495 5.49948L1.7495 5.4978C1.33528 5.49752 0.999722 5.16151 1 4.7473ZM8 4.74743C8.00021 4.33321 8.33616 3.9976 8.75037 3.9978L18.2504 4.00255C18.6646 4.00276 19.0002 4.33871 19 4.75293C18.9998 5.16714 18.6638 5.50276 18.2496 5.50255L8.74963 5.4978C8.33541 5.4976 7.99979 5.16164 8 4.74743ZM1 9.9995C1.00028 9.58528 1.33629 9.24972 1.7505 9.25L4.2505 9.25168C4.66472 9.25196 5.00028 9.58797 5 10.0022C4.99972 10.4164 4.66371 10.752 4.2495 10.7517L1.7495 10.75C1.33528 10.7497 0.999722 10.4137 1 9.9995ZM8 9.99963C8.00021 9.58541 8.33616 9.24979 8.75037 9.25L18.2504 9.25475C18.6646 9.25495 19.0002 9.59091 19 10.0051C18.9998 10.4193 18.6638 10.755 18.2496 10.7547L8.74963 10.75C8.33541 10.7498 7.99979 10.4138 8 9.99963ZM1 15.25C1 14.8358 1.33579 14.5 1.75 14.5H4.25C4.66421 14.5 5 14.8358 5 15.25C5 15.6642 4.66421 16 4.25 16H1.75C1.33579 16 1 15.6642 1 15.25ZM8 15.25C8 14.8358 8.33579 14.5 8.75 14.5H18.25C18.6642 14.5 19 14.8358 19 15.25C19 15.6642 18.6642 16 18.25 16H8.75C8.33579 16 8 15.6642 8 15.25Z" fill="black"/>
</svg>
