<svg width="20" height="20" viewBox="0 0 20 20" fill="none" xmlns="http://www.w3.org/2000/svg">
<path fill-rule="evenodd" clip-rule="evenodd" d="M6.58455 4.54563C6.44521 4.50693 6.25179 4.50003 5.56006 4.50003H4.95C4.37757 4.50003 3.99336 4.50061 3.69748 4.52479C3.41036 4.54824 3.27307 4.59013 3.18251 4.63627C2.94731 4.75611 2.75608 4.94734 2.63624 5.18254C2.5901 5.2731 2.54822 5.41038 2.52476 5.69751C2.50058 5.99339 2.5 6.3776 2.5 6.95003V7.05003C2.5 7.62246 2.50058 8.00667 2.52476 8.30255C2.54822 8.58967 2.5901 8.72696 2.63624 8.81752C2.75608 9.05272 2.94731 9.24395 3.18251 9.36379C3.27307 9.40993 3.41036 9.45181 3.69748 9.47527C3.99336 9.49945 4.37757 9.50003 4.95 9.50003H5.5C5.75993 9.50003 6.00133 9.63462 6.13799 9.85573C6.27464 10.0768 6.28707 10.3529 6.17082 10.5854L4.71353 13.5H5.44906C5.54184 13.5 5.59474 13.4999 5.63483 13.4987C5.66 13.4979 5.67064 13.4969 5.67328 13.4966C5.73797 13.4858 5.79582 13.4499 5.83434 13.3968C5.83174 13.4004 5.83601 13.3955 5.85312 13.3638C5.87215 13.3285 5.89588 13.2812 5.93737 13.1982C6.31451 12.444 6.48723 12.0976 6.63354 11.7467C7.10568 10.6144 7.38943 9.41241 7.47353 8.18846C7.4996 7.80916 7.5 7.42213 7.5 6.57883V6.43997C7.5 5.74824 7.4931 5.55482 7.4544 5.41548C7.33706 4.99305 7.00698 4.66297 6.58455 4.54563ZM5.66119 2.99998C6.20332 2.99961 6.62231 2.99933 6.986 3.10035C7.91536 3.3585 8.64153 4.08467 8.89968 5.01403C9.0007 5.37772 9.00042 5.79671 9.00005 6.33884C9.00002 6.37208 9 6.40579 9 6.43997V6.61077C9.00001 7.41407 9.00001 7.85465 8.97 8.29129C8.87468 9.67843 8.55311 11.0406 8.01802 12.324C7.84958 12.7279 7.65255 13.122 7.29331 13.8405L7.27901 13.8691C7.27377 13.8795 7.26851 13.8901 7.26323 13.9007C7.20066 14.0262 7.13435 14.1592 7.04861 14.2775C6.77822 14.6503 6.37177 14.9015 5.91739 14.9766C5.77331 15.0004 5.62466 15.0002 5.48441 15.0001C5.47256 15 5.46078 15 5.44906 15H3.5C3.24007 15 2.99867 14.8654 2.86201 14.6443C2.72536 14.4232 2.71293 14.1471 2.82918 13.9146L4.2876 10.9978C4.02222 10.9947 3.78522 10.9874 3.57533 10.9703C3.19545 10.9393 2.83879 10.8721 2.50153 10.7003C1.98408 10.4366 1.56338 10.0159 1.29973 9.4985C1.12789 9.16124 1.06078 8.80458 1.02974 8.4247C0.999981 8.06047 0.99999 7.61462 1 7.08046V6.91959C0.99999 6.38544 0.999981 5.93959 1.02974 5.57536C1.06078 5.19547 1.12789 4.83882 1.29973 4.50155C1.56338 3.98411 1.98408 3.56341 2.50153 3.29976C2.83879 3.12792 3.19545 3.06081 3.57533 3.02977C3.93956 3.00001 4.38541 3.00002 4.91957 3.00003L5.56006 3.00003C5.59424 3.00003 5.62795 3.00001 5.66119 2.99998ZM16.5845 6.54563C16.4452 6.50693 16.2518 6.50003 15.5601 6.50003H14.95C14.3776 6.50003 13.9934 6.50061 13.6975 6.52479C13.4104 6.54825 13.2731 6.59013 13.1825 6.63627C12.9473 6.75611 12.7561 6.94734 12.6362 7.18254C12.5901 7.2731 12.5482 7.41038 12.5248 7.69751C12.5006 7.99339 12.5 8.3776 12.5 8.95003V9.05003C12.5 9.62246 12.5006 10.0067 12.5248 10.3026C12.5482 10.5897 12.5901 10.727 12.6362 10.8175C12.7561 11.0527 12.9473 11.2439 13.1825 11.3638C13.2731 11.4099 13.4104 11.4518 13.6975 11.4753C13.9934 11.4994 14.3776 11.5 14.95 11.5H15.5C15.7599 11.5 16.0013 11.6346 16.138 11.8557C16.2746 12.0768 16.2871 12.3529 16.1708 12.5854L14.7135 15.5H15.4491C15.5418 15.5 15.5947 15.4999 15.6348 15.4987C15.6709 15.4976 15.6771 15.496 15.6727 15.4967C15.7377 15.486 15.7957 15.4501 15.8343 15.3968C15.8317 15.4004 15.836 15.3955 15.8531 15.3638C15.8721 15.3285 15.8959 15.2812 15.9374 15.1982C16.3145 14.444 16.4872 14.0976 16.6335 13.7467C17.1057 12.6144 17.3894 11.4124 17.4735 10.1885C17.4996 9.80916 17.5 9.42213 17.5 8.57883V8.43997C17.5 7.74824 17.4931 7.55482 17.4544 7.41548C17.3371 6.99305 17.007 6.66297 16.5845 6.54563ZM15.6612 4.99998C16.2033 4.99961 16.6223 4.99933 16.986 5.10035C17.9154 5.3585 18.6415 6.08467 18.8997 7.01403C19.0007 7.37772 19.0004 7.79671 19 8.33884C19 8.37208 19 8.40579 19 8.43997V8.6107C19 9.41405 19 9.85463 18.97 10.2913C18.8747 11.6784 18.5531 13.0406 18.018 14.324C17.8496 14.7279 17.6525 15.122 17.2933 15.8405L17.279 15.8691C17.2738 15.8795 17.2685 15.8901 17.2632 15.9007C17.2007 16.0262 17.1343 16.1592 17.0486 16.2775C16.7782 16.6503 16.3718 16.9015 15.9174 16.9766C15.7733 17.0004 15.6247 17.0002 15.4844 17.0001C15.4726 17 15.4608 17 15.4491 17H13.5C13.2401 17 12.9987 16.8654 12.862 16.6443C12.7254 16.4232 12.7129 16.1471 12.8292 15.9146L14.2876 12.9978C14.0222 12.9947 13.7852 12.9874 13.5753 12.9703C13.1954 12.9393 12.8388 12.8721 12.5015 12.7003C11.9841 12.4366 11.5634 12.0159 11.2997 11.4985C11.1279 11.1612 11.0608 10.8046 11.0297 10.4247C11 10.0605 11 9.61463 11 9.08048V8.91958C11 8.38543 11 7.93959 11.0297 7.57536C11.0608 7.19547 11.1279 6.83882 11.2997 6.50155C11.5634 5.98411 11.9841 5.56341 12.5015 5.29976C12.8388 5.12792 13.1954 5.06081 13.5753 5.02977C13.9396 5.00001 14.3854 5.00002 14.9196 5.00003L15.5601 5.00003C15.5942 5.00003 15.6279 5.00001 15.6612 4.99998Z" fill="black"/>
</svg>
