<svg width="20" height="20" viewBox="0 0 20 20" fill="none" xmlns="http://www.w3.org/2000/svg">
<path fill-rule="evenodd" clip-rule="evenodd" d="M10.8356 1.28151C11.0944 1.60495 11.042 2.07692 10.7185 2.33568L9.88808 3.00003H10C10.9478 3.00003 11.8533 3.18879 12.6797 3.53148C13.5358 3.8865 14.3056 4.40609 14.9498 5.0503C15.5939 5.69448 16.1135 6.46417 16.4685 7.32027C16.8112 8.14668 17 9.05225 17 10C17 10.9478 16.8112 11.8534 16.4685 12.6798C16.3099 13.0624 15.8711 13.2439 15.4884 13.0853C15.1058 12.9266 14.9243 12.4878 15.0829 12.1052C15.3514 11.4577 15.5 10.7472 15.5 10C15.5 9.25288 15.3514 8.54232 15.0829 7.89486C14.8044 7.22325 14.3962 6.61809 13.8891 6.11095C13.3819 5.6038 12.7768 5.19559 12.1051 4.91707C11.4577 4.64859 10.7471 4.50003 10 4.50003H9.88808L10.7185 5.16438C11.042 5.42313 11.0944 5.8951 10.8356 6.21855C10.5769 6.542 10.1049 6.59444 9.78147 6.33568L7.28147 4.33568C7.10356 4.19335 6.99999 3.97787 6.99999 3.75003C6.99999 3.52219 7.10356 3.30671 7.28147 3.16438L9.78147 1.16438C10.1049 0.905619 10.5769 0.95806 10.8356 1.28151ZM4.5115 6.91488C4.89413 7.07354 5.07568 7.51234 4.91702 7.89496C4.64855 8.54239 4.5 9.25292 4.5 10C4.5 10.7471 4.64855 11.4577 4.91701 12.1051C5.19553 12.7767 5.60375 13.382 6.11093 13.8891C6.61808 14.3963 7.22327 14.8045 7.8949 15.083C8.54235 15.3515 9.25288 15.5 10 15.5H10.1119L9.28147 14.8357C8.95803 14.5769 8.90559 14.105 9.16434 13.7815C9.4231 13.4581 9.89507 13.4056 10.2185 13.6644L12.7185 15.6644C12.8964 15.8067 13 16.0222 13 16.25C13 16.4779 12.8964 16.6933 12.7185 16.8357L10.2185 18.8357C9.89507 19.0944 9.4231 19.042 9.16434 18.7185C8.90559 18.3951 8.95803 17.9231 9.28147 17.6644L10.1119 17H10C9.05226 17 8.14671 16.8113 7.32033 16.4686C6.4642 16.1136 5.69447 15.594 5.05027 14.9498C4.40604 14.3056 3.88644 13.5358 3.53142 12.6796C3.18875 11.8533 3 10.9477 3 10C3 9.0523 3.18875 8.14677 3.53142 7.32039C3.69009 6.93777 4.12888 6.75622 4.5115 6.91488Z" fill="black"/>
</svg>
