<svg width="20" height="20" viewBox="0 0 20 20" fill="none" xmlns="http://www.w3.org/2000/svg">
    <path fill-rule="evenodd" clip-rule="evenodd"
          d="M16 2.5C15.1716 2.5 14.5 3.17157 14.5 4C14.5 4.82843 15.1716 5.5 16 5.5C16.8284 5.5 17.5 4.82843 17.5 4C17.5 3.17157 16.8284 2.5 16 2.5ZM13 4C13 2.34315 14.3431 1 16 1C17.6569 1 19 2.34315 19 4C19 5.65685 17.6569 7 16 7C15.0971 7 14.2873 6.60109 13.7373 5.96988L6.93406 9.3715C6.97726 9.57418 7 9.78443 7 10C7 10.2156 6.97726 10.4258 6.93406 10.6285L13.7373 14.0301C14.2873 13.3989 15.0971 13 16 13C17.6569 13 19 14.3431 19 16C19 17.6569 17.6569 19 16 19C14.3431 19 13 17.6569 13 16C13 15.7844 13.0227 15.5742 13.0659 15.3715L6.26271 11.9699C5.71272 12.6011 4.90295 13 4 13C2.34315 13 1 11.6569 1 10C1 8.34315 2.34315 7 4 7C4.90295 7 5.71272 7.39891 6.26271 8.03012L13.0659 4.6285C13.0227 4.42582 13 4.21557 13 4ZM4 8.5C3.17157 8.5 2.5 9.17157 2.5 10C2.5 10.8284 3.17157 11.5 4 11.5C4.82843 11.5 5.5 10.8284 5.5 10C5.5 9.17157 4.82843 8.5 4 8.5ZM16 14.5C15.1716 14.5 14.5 15.1716 14.5 16C14.5 16.8284 15.1716 17.5 16 17.5C16.8284 17.5 17.5 16.8284 17.5 16C17.5 15.1716 16.8284 14.5 16 14.5Z"
          fill="#38D9A8"/>
</svg>
