<svg width="20" height="20" viewBox="0 0 20 20" fill="none" xmlns="http://www.w3.org/2000/svg">
<path fill-rule="evenodd" clip-rule="evenodd" d="M10.0928 2.5233C9.99905 2.47494 9.86181 2.50032 9.79335 2.64529L8.00799 6.42564C7.76215 6.94619 7.27807 7.32303 6.69953 7.41088L2.70736 8.01709C2.66367 8.02373 2.61758 8.04599 2.57857 8.08782C2.47149 8.20261 2.47467 8.39833 2.58316 8.50884L5.47192 11.4514C5.87611 11.8632 6.05323 12.4464 5.96057 13.0109L5.27863 17.1659C5.2674 17.2344 5.27853 17.3036 5.30766 17.3615C5.3787 17.5027 5.51526 17.5255 5.60897 17.4741L9.17967 15.5123C9.69201 15.2309 10.3079 15.2309 10.8202 15.5123L14.3909 17.4741C14.434 17.4977 14.48 17.5045 14.5234 17.4967C14.5864 17.4854 14.6553 17.4449 14.7056 17.3752C14.754 17.3082 14.7706 17.2348 14.7603 17.1682L14.0393 13.0109C13.9466 12.4464 14.1238 11.8632 14.5279 11.4514L17.4167 8.50884C17.4568 8.46798 17.4872 8.40963 17.4968 8.3409C17.5227 8.15471 17.3972 8.03299 17.2925 8.01709L13.3003 7.41088C12.7218 7.32303 12.2377 6.94619 11.9919 6.42564L10.2065 2.64529C10.1788 2.58663 10.1367 2.54592 10.0928 2.5233ZM8.437 2.00472C8.85086 1.12842 9.89685 0.73449 10.7804 1.19016C11.1257 1.36824 11.3985 1.65671 11.5629 2.00472L13.3482 5.78507C13.3898 5.87313 13.4613 5.91814 13.5255 5.92788L17.5177 6.53409C18.4915 6.68196 19.1133 7.60664 18.9825 8.54749C18.9296 8.92755 18.7578 9.28398 18.4871 9.55967L15.5984 12.5023C15.5379 12.5638 15.5029 12.6621 15.5191 12.7656L16.2401 16.923C16.4008 17.9021 15.7151 18.807 14.788 18.9732C14.4037 19.0421 14.0097 18.9761 13.6686 18.7887L10.0979 16.827C10.0354 16.7926 9.96447 16.7926 9.90194 16.827L6.33123 18.7887C5.46031 19.2672 4.40376 18.9024 3.96767 18.0356C3.79485 17.6921 3.7363 17.3015 3.79843 16.923L4.48038 12.768C4.49751 12.6636 4.4624 12.5643 4.40151 12.5023L1.51275 9.55967C0.840839 8.87523 0.828048 7.7654 1.48168 7.06467C1.74558 6.78174 2.09641 6.59267 2.48217 6.53409L6.47434 5.92788C6.53853 5.91814 6.61006 5.87313 6.65165 5.78507L8.437 2.00472Z" fill="black"/>
</svg>
