<svg width="20" height="20" viewBox="0 0 20 20" fill="none" xmlns="http://www.w3.org/2000/svg">
<path fill-rule="evenodd" clip-rule="evenodd" d="M6.35759 0.999898C6.40116 0.99994 6.44529 0.999983 6.49 0.999983L15.0804 0.999982C15.6146 0.999972 16.0604 0.999963 16.4247 1.02972C16.8046 1.06076 17.1612 1.12787 17.4985 1.29971C18.0159 1.56337 18.4366 1.98406 18.7003 2.50151C18.8721 2.83877 18.9392 3.19543 18.9703 3.57531C19 3.93954 19 4.38538 19 4.91953V8.08043C19 8.61458 19 9.06042 18.9703 9.42465C18.9392 9.80454 18.8721 10.1612 18.7003 10.4985C18.4366 11.0159 18.0159 11.4366 17.4985 11.7003C17.1612 11.8721 16.8046 11.9392 16.4247 11.9702C16.0604 12 15.6146 12 15.0805 12H14.2069C13.9801 12 13.8488 12.0004 13.7505 12.0074C13.6903 12.0117 13.6651 12.0173 13.6585 12.0191C13.6194 12.0353 13.585 12.0612 13.5586 12.0944C13.555 12.1003 13.5427 12.123 13.5221 12.1797C13.4884 12.2722 13.4519 12.3984 13.3896 12.6165L11.928 17.7319C11.7136 18.4825 11.0275 19 10.2469 19C8.72982 19 7.5 17.7702 7.5 16.2531V13.85C7.5 13.5576 7.49942 13.3834 7.48887 13.2543C7.48243 13.1755 7.47394 13.1423 7.47118 13.1334C7.44766 13.0888 7.41118 13.0523 7.36654 13.0288C7.35767 13.0261 7.32454 13.0176 7.24573 13.0111C7.1166 13.0006 6.94241 13 6.65 13H5.28483C4.59465 13 4.02768 13 3.57465 12.9595C3.10859 12.9179 2.67247 12.8277 2.28495 12.5876C1.70891 12.2307 1.26784 11.668 1.07847 11.0005C0.952705 10.5572 0.991778 10.1084 1.08275 9.65094C1.16562 9.23421 1.31016 8.7291 1.48319 8.12445C1.49817 8.07207 1.51338 8.01894 1.52877 7.96506L2.69879 3.86506C2.71037 3.82454 2.72184 3.78428 2.7331 3.74474C2.93547 3.03416 3.09346 2.47944 3.4303 2.0508C3.72116 1.68068 4.09994 1.38649 4.54642 1.20414C5.04956 0.998639 5.62341 0.999192 6.35759 0.999898ZM7.36913 13.0297C7.3691 13.0297 7.36858 13.0295 7.36764 13.0292L7.36913 13.0297ZM7.47028 13.1309C7.47029 13.1308 7.47048 13.1313 7.47083 13.1323L7.47028 13.1309ZM13.5597 12.0928C13.5597 12.0928 13.5592 12.0935 13.5586 12.0944L13.5597 12.0928ZM13.6566 12.0197C13.6566 12.0196 13.6573 12.0194 13.6585 12.0191L13.6566 12.0197ZM6.49 2.49998C5.55778 2.49998 5.30764 2.51352 5.11358 2.59278C4.91833 2.67253 4.74716 2.80271 4.6097 2.97763C4.48004 3.14262 4.39697 3.38154 4.14121 4.27669C4.14119 4.27676 4.14123 4.27661 4.14121 4.27669L2.97119 8.37669C2.95855 8.42091 2.9461 8.46447 2.93395 8.50695C2.75142 9.14537 2.62414 9.59053 2.55394 9.94351C2.47998 10.3154 2.49189 10.4867 2.52153 10.5911C2.60442 10.8833 2.80307 11.144 3.07501 11.3125C3.17151 11.3723 3.33529 11.4321 3.70818 11.4655C4.08643 11.4993 4.5859 11.5 5.31998 11.5L6.67624 11.5C6.93372 11.5 7.17019 11.4999 7.36788 11.5161C7.58101 11.5335 7.81418 11.5734 8.04449 11.6907C8.37377 11.8585 8.64149 12.1262 8.80927 12.4555C8.92661 12.6858 8.96648 12.919 8.98389 13.1321C9.00004 13.3298 9.00002 13.5663 9.00001 13.8238L9 16.2531C9 16.9417 9.55825 17.5 10.2469 17.5C10.3578 17.5 10.4553 17.4264 10.4858 17.3198L11.9473 12.2044C11.9552 12.1766 11.9631 12.1487 11.9711 12.1205C12.0638 11.7926 12.1624 11.4435 12.3783 11.1687C12.5657 10.9302 12.8119 10.7446 13.0926 10.6299C13.2234 10.5765 13.3605 10.5449 13.5 10.5262V2.49998H6.49ZM15 2.49998V10.5H15.05C15.6224 10.5 16.0066 10.4994 16.3025 10.4752C16.5896 10.4518 16.7269 10.4099 16.8175 10.3637C17.0527 10.2439 17.2439 10.0527 17.3638 9.81747C17.4099 9.72691 17.4518 9.58963 17.4752 9.3025C17.4994 9.00663 17.5 8.62241 17.5 8.04998V4.94998C17.5 4.37755 17.4994 3.99334 17.4752 3.69746C17.4518 3.41034 17.4099 3.27306 17.3638 3.18249C17.2439 2.94729 17.0527 2.75607 16.8175 2.63622C16.7269 2.59008 16.5896 2.5482 16.3025 2.52474C16.0066 2.50057 15.6224 2.49998 15.05 2.49998H15Z" fill="black"/>
</svg>
