<svg width="20" height="20" viewBox="0 0 20 20" fill="none" xmlns="http://www.w3.org/2000/svg">
<path d="M15.5 12.75V12.0001C15.5 10.8955 14.6046 10 13.5 10H6.5C5.39543 10 4.5 10.8954 4.5 12V12.75M10 7.25V10M7.4511 4.9855L9.5145 7.0489C9.78263 7.31703 10.2174 7.31703 10.4855 7.0489L12.5489 4.9855C12.817 4.71737 12.817 4.28263 12.5489 4.0145L10.4855 1.9511C10.2174 1.68297 9.78263 1.68297 9.5145 1.9511L7.4511 4.0145C7.18297 4.28263 7.18297 4.71737 7.4511 4.9855ZM1.9511 15.9855L4.0145 18.0489C4.28263 18.317 4.71737 18.317 4.9855 18.0489L7.0489 15.9855C7.31703 15.7174 7.31703 15.2826 7.0489 15.0145L4.9855 12.9511C4.71737 12.683 4.28263 12.683 4.0145 12.9511L1.9511 15.0145C1.68297 15.2826 1.68297 15.7174 1.9511 15.9855ZM12.9511 15.9855L15.0145 18.0489C15.2826 18.317 15.7174 18.317 15.9855 18.0489L18.0489 15.9855C18.317 15.7174 18.317 15.2826 18.0489 15.0145L15.9855 12.9511C15.7174 12.683 15.2826 12.683 15.0145 12.9511L12.9511 15.0145C12.683 15.2826 12.683 15.7174 12.9511 15.9855Z" stroke="black" stroke-width="1.5" stroke-linecap="round" stroke-linejoin="round"/>
</svg>
