<svg width="20" height="20" viewBox="0 0 20 20" fill="none" xmlns="http://www.w3.org/2000/svg">
<path d="M12.75 4.5L12.0001 4.5C10.8955 4.5 10 5.39543 10 6.5L10 13.5C10 14.6046 10.8954 15.5 12 15.5L12.75 15.5M7.25 10L10 10M4.9855 12.5489L7.0489 10.4855C7.31703 10.2174 7.31703 9.78263 7.0489 9.5145L4.9855 7.4511C4.71737 7.18297 4.28263 7.18297 4.0145 7.4511L1.9511 9.5145C1.68297 9.78263 1.68297 10.2174 1.9511 10.4855L4.0145 12.5489C4.28263 12.817 4.71737 12.817 4.9855 12.5489ZM15.9855 18.0489L18.0489 15.9855C18.317 15.7174 18.317 15.2826 18.0489 15.0145L15.9855 12.9511C15.7174 12.683 15.2826 12.683 15.0145 12.9511L12.9511 15.0145C12.683 15.2826 12.683 15.7174 12.9511 15.9855L15.0145 18.0489C15.2826 18.317 15.7174 18.317 15.9855 18.0489ZM15.9855 7.0489L18.0489 4.9855C18.317 4.71737 18.317 4.28263 18.0489 4.0145L15.9855 1.9511C15.7174 1.68297 15.2826 1.68297 15.0145 1.9511L12.9511 4.0145C12.683 4.28263 12.683 4.71737 12.9511 4.9855L15.0145 7.0489C15.2826 7.31703 15.7174 7.31703 15.9855 7.0489Z" stroke="black" stroke-width="1.5" stroke-linecap="round" stroke-linejoin="round"/>
</svg>
