<svg width="20" height="20" viewBox="0 0 20 20" fill="none" xmlns="http://www.w3.org/2000/svg">
<path fill-rule="evenodd" clip-rule="evenodd" d="M10 2.5C8.61929 2.5 7.5 3.61929 7.5 5C7.5 6.38071 8.61929 7.5 10 7.5C11.3807 7.5 12.5 6.38071 12.5 5C12.5 3.61929 11.3807 2.5 10 2.5ZM6 5C6 2.79086 7.79086 1 10 1C12.2091 1 14 2.79086 14 5C14 7.20914 12.2091 9 10 9C7.79086 9 6 7.20914 6 5ZM3 16.625C3 13.5184 5.5184 11 8.625 11H10.75C11.1642 11 11.5 11.3358 11.5 11.75C11.5 12.1642 11.1642 12.5 10.75 12.5H8.625C6.34683 12.5 4.5 14.3468 4.5 16.625C4.5 17.1082 4.89175 17.5 5.375 17.5H8.75C9.16421 17.5 9.5 17.8358 9.5 18.25C9.5 18.6642 9.16421 19 8.75 19H5.375C4.06332 19 3 17.9367 3 16.625ZM13.2197 13.2197C13.5126 12.9268 13.9874 12.9268 14.2803 13.2197L16 14.9393L17.7197 13.2197C18.0126 12.9268 18.4874 12.9268 18.7803 13.2197C19.0732 13.5126 19.0732 13.9874 18.7803 14.2803L17.0607 16L18.7803 17.7197C19.0732 18.0126 19.0732 18.4874 18.7803 18.7803C18.4874 19.0732 18.0126 19.0732 17.7197 18.7803L16 17.0607L14.2803 18.7803C13.9874 19.0732 13.5126 19.0732 13.2197 18.7803C12.9268 18.4874 12.9268 18.0126 13.2197 17.7197L14.9393 16L13.2197 14.2803C12.9268 13.9874 12.9268 13.5126 13.2197 13.2197Z" fill="black"/>
</svg>
