<svg width="20" height="20" viewBox="0 0 20 20" fill="none" xmlns="http://www.w3.org/2000/svg">
<path fill-rule="evenodd" clip-rule="evenodd" d="M12.4485 3.38605C11.3613 1.53799 8.62994 1.53798 7.54268 3.38605L1.37904 13.8627C0.27365 15.7416 1.70165 18 3.83196 18H16.1592C18.2896 18 19.7176 15.7416 18.6122 13.8627L12.4485 3.38605ZM9.25012 15.25C9.25012 15.6642 9.58591 16 10.0001 16C10.4143 16 10.7501 15.6642 10.7501 15.25V13.75C10.7501 13.3358 10.4143 13 10.0001 13C9.58591 13 9.25012 13.3358 9.25012 13.75V15.25ZM9.25012 10.25C9.25012 10.6642 9.58591 11 10.0001 11C10.4143 11 10.7501 10.6642 10.7501 10.25L10.7501 6.75C10.7501 6.33579 10.4143 6 10.0001 6C9.58591 6 9.25012 6.33579 9.25012 6.75L9.25012 10.25Z" fill="black"/>
</svg>
