<svg width="35" height="22" viewBox="0 0 35 22" fill="none" xmlns="http://www.w3.org/2000/svg">
<path d="M24.9608 20.9515C24.5947 20.9515 24.2464 20.7685 24.0396 20.4552L21.74 16.9845C21.4016 16.4732 21.5392 15.7818 22.0478 15.4406C22.5564 15.1004 23.2441 15.2377 23.5825 15.75L24.4968 17.1297L27.3178 8.36292C27.4415 7.86753 27.8838 7.39801 28.3924 7.39801H33.5764C34.1879 7.39801 34.6836 7.92722 34.6836 8.54198C34.6836 9.15674 34.1879 9.68595 33.5764 9.68595H29.2553L26.0354 20.0175C25.9286 20.4442 25.5813 20.8143 25.1498 20.8889C25.0865 20.8998 25.0242 20.9505 24.9618 20.9505L24.9608 20.9515Z" fill="url(#paint0_linear_169_3061)"/>
<path d="M20.3587 12.1738H15.3123C14.7008 12.1738 14.205 11.6446 14.205 11.0298C14.205 10.4151 14.7008 9.88586 15.3123 9.88586H20.3587C20.9702 9.88586 21.4659 10.4151 21.4659 11.0298C21.4659 11.6446 20.9702 12.1738 20.3587 12.1738Z" fill="url(#paint1_linear_169_3061)"/>
<path d="M10.8476 21.999C4.94333 21.999 0.14032 17.065 0.14032 11C0.14032 4.93498 4.94333 0 10.8476 0C14.0605 0 17.0745 1.46229 19.1178 4.01284C19.5057 4.49629 19.4305 5.20555 18.9486 5.5945C18.4668 5.98445 17.7622 5.90785 17.3744 5.4244C15.7575 3.40803 13.3788 2.25113 10.8476 2.25113C6.17822 2.25113 2.37856 6.17544 2.37856 11C2.37856 15.8246 6.17723 19.7479 10.8476 19.7479C15.5181 19.7479 19.3167 15.8236 19.3167 11C19.3167 10.3783 19.8184 9.87394 20.4368 9.87394C21.0553 9.87394 21.556 10.3783 21.556 11C21.556 17.065 16.753 22 10.8486 22L10.8476 21.999Z" fill="url(#paint2_linear_169_3061)"/>
<defs>
<linearGradient id="paint0_linear_169_3061" x1="22.2199" y1="18.6566" x2="33.7798" y2="7.15788" gradientUnits="userSpaceOnUse">
<stop stop-color="#38D9A9"/>
<stop offset="0.64" stop-color="#15A990"/>
<stop offset="1" stop-color="#008C82"/>
</linearGradient>
<linearGradient id="paint1_linear_169_3061" x1="21.4659" y1="11.0298" x2="14.204" y2="11.0298" gradientUnits="userSpaceOnUse">
<stop stop-color="#38D9A9"/>
<stop offset="0.64" stop-color="#15A990"/>
<stop offset="1" stop-color="#008C82"/>
</linearGradient>
<linearGradient id="paint2_linear_169_3061" x1="0.14032" y1="11" x2="21.556" y2="11" gradientUnits="userSpaceOnUse">
<stop stop-color="#38D9A9"/>
<stop offset="0.64" stop-color="#15A990"/>
<stop offset="1" stop-color="#008C82"/>
</linearGradient>
</defs>
</svg>
